<svg id="Layer_1" data-name="Layer 1" xmlns="http://www.w3.org/2000/svg" viewBox="0 0 1690.02 1228.05"><defs><style>.cls-1{fill:#077aff;}.cls-2{fill:#015dfe;}.cls-3{fill:#d8c1ad;}.cls-4{fill:#2852f9;}.cls-5{fill:#141414;}.cls-6{fill:#333;}.cls-7{fill:#397a6f;}.cls-8{fill:#1d3d37;}.cls-9{fill:#2b535a;}.cls-10{fill:#5ab089;}.cls-11{fill:#fcd1b9;}.cls-12,.cls-63,.cls-71,.cls-76{fill:none;}.cls-12,.cls-71,.cls-76{stroke:#000;}.cls-12,.cls-63,.cls-71{stroke-miterlimit:10;}.cls-12{stroke-width:6px;}.cls-13{fill:#2a474d;}.cls-14{fill:#2c364c;}.cls-15{fill:#253d6d;}.cls-16{fill:#00e1ff;}.cls-17{fill:#bdf9fd;}.cls-18{fill:#6e7d9f;}.cls-19{fill:#ffd41d;}.cls-20{fill:#4a4263;}.cls-21{fill:#352c49;}.cls-22{fill:#413452;}.cls-23{fill:#772308;}.cls-24{fill:#a53614;}.cls-25{fill:#cc4211;}.cls-26{fill:#ff7619;}.cls-27{fill:#7c32fa;}.cls-28{fill:#bbf200;}.cls-29{fill:#00c0f4;}.cls-30{fill:#f8cd00;}.cls-31{fill:#fbe701;}.cls-32{fill:#00bfff;}.cls-33{fill:#ffe700;}.cls-34{fill:#3a0064;}.cls-35{fill:#ff9e00;}.cls-36{fill:#02ff9a;}.cls-37{fill:#b5f600;}.cls-38{fill:#c6f400;}.cls-39{fill:#14e00b;}.cls-40{fill:#f7ffc5;}.cls-41{fill:#1bce3a;}.cls-42{fill:#12d128;}.cls-43{fill:#fde916;}.cls-44{fill:#78e92d;}.cls-45{fill:#ffff13;}.cls-46{fill:#5e1a90;}.cls-47{fill:#fc5915;}.cls-48{fill:#ffb915;}.cls-49{fill:#15d089;}.cls-50{fill:#13cf87;}.cls-51{fill:#fff;}.cls-52{fill:#79e827;}.cls-53{fill:#5a6a92;}.cls-54{fill:#572464;}.cls-55{fill:#fe5235;}.cls-56{fill:#ff713b;}.cls-57{fill:#ff512f;}.cls-58{fill:#ff8c33;}.cls-59{fill:#9ce8ff;}.cls-60{fill:#ff9641;}.cls-61{fill:#ff6d31;}.cls-62{fill:#463299;}.cls-63{stroke:#ff5031;stroke-width:2px;}.cls-63,.cls-71,.cls-76{stroke-linecap:round;}.cls-64{fill:#fa925c;}.cls-65{fill:#60235d;}.cls-66{fill:#47267d;}.cls-67{fill:#fdffff;}.cls-68{fill:#9fadce;}.cls-69{fill:#455a85;}.cls-70{fill:#186c7f;}.cls-71{stroke-width:5px;}.cls-72{fill:#f5ff73;}.cls-73{fill:#fffdec;opacity:0.2;}.cls-74{fill:#6d1641;}.cls-75{fill:#ab3b5a;}.cls-76{stroke-linejoin:round;stroke-width:0.5px;}.cls-77{fill:#e4954f;}.cls-78{fill:#e37c44;}.cls-79{fill:#f0e796;}.cls-80{fill:#f7f8e6;}.cls-81{fill:#1e1d30;}.cls-82{fill:#312b31;}</style></defs><title>dive_down</title><rect class="cls-1" width="1690.02" height="946.73" rx="413.01"/><rect class="cls-2" y="191.35" width="1690.02" height="1022.37" rx="413.01"/><path class="cls-3" d="M4199.38,1002.91a11.09,11.09,0,0,0,.21-2.17V738.32c0-.45,0-.89-.07-1.32.3-64.07-82.38-106-140-121.45-159-42.73-314.9-2.11-314.9-2.11s-7.2,1.28-15.83,3.69c-51.89,14.54-240.28,70.35-297.27,247.43-66.46,206.5-524.57,166.15-524.57,166.15s-301.9,58.37-364.27,152.64a416.46,416.46,0,0,0,100.43,142.17c73.71,68.08,172.07,109.81,279.71,109.81h864c227.15,0,413-185.85,413-413h0Q4199.86,1012.57,4199.38,1002.91Z" transform="translate(-2509.84 -207.29)"/><path class="cls-4" d="M2907,1030.71s458.11,40.35,524.57-166.15c57-177.08,243.13-240.71,295-255.25H2922.85c-227.16,0-413,185.86-413,413h0a409.24,409.24,0,0,0,32.87,161C2605.08,1089.08,2907,1030.71,2907,1030.71Z" transform="translate(-2509.84 -207.29)"/><rect class="cls-5" x="2737.49" y="489.49" width="146.6" height="37.61" rx="18.27" transform="translate(-1609.28 -1822.65) rotate(37.78)"/><rect class="cls-5" x="2828.77" y="530.87" width="166.42" height="45.6" rx="22.8" transform="matrix(0.97, 0.26, -0.26, 0.97, -2272.09, -932.16)"/><rect class="cls-5" x="2712.36" y="528.62" width="147.9" height="42.47" rx="20" transform="translate(-1949.72 -1420.93) rotate(27.22)"/><rect class="cls-5" x="2811.09" y="549.67" width="155.63" height="54.86" rx="27.43" transform="translate(-2391.3 -632.12) rotate(8.59)"/><rect class="cls-6" x="2950.33" y="565.84" width="250.33" height="107.22" rx="45.49" transform="translate(-2083.49 -1268.43) rotate(21)"/><ellipse class="cls-7" cx="3992.28" cy="565.38" rx="53.26" ry="38.57" transform="translate(577.61 4287.38) rotate(-85.09)"/><ellipse class="cls-7" cx="3983.17" cy="671.52" rx="53.26" ry="38.57" transform="translate(463.54 4375.35) rotate(-85.09)"/><path class="cls-7" d="M3940.42,831.21l6-70.47c6-6.61,10.22-16.31,11.17-27.39s-1.56-21.36-6.34-28.9l6.17-71.82a52.62,52.62,0,0,0,2.9-33.81l3.11-36.22c.27-3.12,2.34-5.51,4.59-5.32l51.6,4.43c2.26.2,3.89,2.91,3.62,6l-2.6,30.32a51,51,0,0,0-4.24,49.36l-7.78,62.06c-7.61,6.47-10.38,14-11.49,26.9s2.28,25.79,8.67,33.46L4000.52,833c-5.73,6.6-9.74,16.07-10.67,26.84s1.42,20.79,5.94,28.27l-1.85,21.46c-.26,3.12-2.33,5.51-4.59,5.32l-51.6-4.43c-2.26-.2-3.88-2.9-3.62-6l2-23.84a51,51,0,0,0,4.24-49.36Z" transform="translate(-2509.84 -207.29)"/><ellipse class="cls-7" cx="3972.26" cy="798.57" rx="53.26" ry="38.57" transform="translate(326.97 4480.67) rotate(-85.09)"/><ellipse class="cls-7" cx="3962.05" cy="917.41" rx="53.26" ry="38.57" transform="translate(199.24 4579.17) rotate(-85.09)"/><path class="cls-8" d="M3954.6,927.26c-.12-.78-2.75-19.59,12.74-51.87.13-.29,16-37,.47-65.36-17-30.93,5.87-88,6.85-90.44l.11-.24c.18-.36,18.1-35.82,7.3-56-1.11-1.88-15.08-26.88,6.19-62,14.68-24.22-.52-53.26-.68-53.55l5.29-2.83c.7,1.31,17,32.37.52,59.49-19.79,32.66-6.29,55.61-6.15,55.84l.08.14c12.12,22.52-5.7,58.66-7.14,61.52-1.13,2.84-22.4,57.36-7.11,85.18,17,31,.43,69.15-.28,70.76-14.63,30.49-12.28,48.3-12.26,48.47Z" transform="translate(-2509.84 -207.29)"/><path class="cls-9" d="M3906.91,961.38a7,7,0,1,1,2.28-13.81,50.09,50.09,0,0,0,57.52-41.18l0-.13,29.73-160.55a7,7,0,1,1,13.77,2.55l-29.72,160.48A64.09,64.09,0,0,1,3906.91,961.38Z" transform="translate(-2509.84 -207.29)"/><path class="cls-9" d="M3975.88,905.82a7,7,0,0,1,2.29-13.81,50.07,50.07,0,0,0,57.51-41.18,7,7,0,0,1,13.81,2.29A64.08,64.08,0,0,1,3975.88,905.82Z" transform="translate(-2509.84 -207.29)"/><path class="cls-9" d="M3993.86,802.71a7,7,0,0,1,2.29-13.81,50.07,50.07,0,0,0,57.51-41.18,7,7,0,0,1,13.81,2.28A64.08,64.08,0,0,1,3993.86,802.71Z" transform="translate(-2509.84 -207.29)"/><path class="cls-9" d="M3985.43,848.86a64.09,64.09,0,0,1-52.71-73.61,7,7,0,0,1,13.82,2.29,50.06,50.06,0,0,0,41.18,57.51,7,7,0,1,1-2.29,13.81Z" transform="translate(-2509.84 -207.29)"/><path class="cls-9" d="M3876.23,994.73a46.85,46.85,0,0,1-45.27-35l-30.61-109.64a7,7,0,0,1,13.48-3.76l30.66,109.83a32.81,32.81,0,0,0,39.94,23.52,7,7,0,0,1,3.51,13.56A46.89,46.89,0,0,1,3876.23,994.73Z" transform="translate(-2509.84 -207.29)"/><path class="cls-9" d="M3826.8,959.9a46.84,46.84,0,0,1-45.21-35.08,7,7,0,1,1,13.56-3.5,32.78,32.78,0,0,0,39.93,23.52,7,7,0,1,1,3.51,13.55A47,47,0,0,1,3826.8,959.9Z" transform="translate(-2509.84 -207.29)"/><path class="cls-9" d="M3805.88,889.9a46.84,46.84,0,0,1-45.21-35.08,7,7,0,0,1,13.56-3.51,32.81,32.81,0,0,0,39.93,23.53,7,7,0,1,1,3.51,13.55A47,47,0,0,1,3805.88,889.9Z" transform="translate(-2509.84 -207.29)"/><path class="cls-9" d="M3824.63,920.16a7,7,0,0,1-1.74-13.78,32.78,32.78,0,0,0,23.52-39.94,7,7,0,1,1,13.55-3.5,46.76,46.76,0,0,1-33.57,57A6.7,6.7,0,0,1,3824.63,920.16Z" transform="translate(-2509.84 -207.29)"/><ellipse class="cls-10" cx="3861.62" cy="616.34" rx="38.57" ry="45.66" transform="translate(-2548.4 125.32) rotate(-4.91)"/><ellipse class="cls-10" cx="3869.44" cy="707.33" rx="38.57" ry="45.66" transform="translate(-2556.16 126.32) rotate(-4.91)"/><path class="cls-10" d="M3910.2,843.89,3905,783.47a37.8,37.8,0,0,1-4.15-48.26l-5.28-61.57a39.13,39.13,0,0,1-2.49-29l-2.67-31.06c-.23-2.67-2.26-4.7-4.52-4.5l-51.6,4.43c-2.26.19-3.92,2.54-3.69,5.21l2.23,26a38.27,38.27,0,0,1,3.64,42.32l7,53.18c7.52,5.46,10.2,11.89,11.15,22.94s-2.59,22.18-9.07,28.84l4.56,54.13a37.93,37.93,0,0,1,4.05,47.25l1.58,18.4c.23,2.67,2.27,4.7,4.53,4.51l51.6-4.43c2.25-.2,3.91-2.54,3.68-5.22l-1.75-20.43a38.3,38.3,0,0,1-3.63-42.32Z" transform="translate(-2509.84 -207.29)"/><ellipse class="cls-10" cx="3878.79" cy="816.26" rx="38.57" ry="45.66" transform="translate(-2565.44 127.52) rotate(-4.91)"/><ellipse class="cls-10" cx="3887.54" cy="918.14" rx="38.57" ry="45.66" transform="translate(-2574.13 128.64) rotate(-4.91)"/><path class="cls-8" d="M3893.83,923.26l-5.71-1.84c0-.11,3.12-11.47-10.71-36.69l0-.09c-.7-1.39-17-34.33.59-61.44,15.37-23.68-4.86-69.63-6.07-72.33-1.55-2.68-18.93-33.68-6.38-53.42l.09-.14c.56-.79,13.52-19.86-5.45-47.07-16.35-23.46.49-50.69,1.22-51.84l5.07,3.2c-.16.25-15.42,25-1.36,45.21,21.06,30.22,6.66,52.18,5.46,53.91-10.81,17.12,6.43,46.95,6.6,47.25l.14.26c1,2.08,23.27,51.18,5.72,78.23-15.45,23.81-.9,54.2-.29,55.44C3898,909.81,3894,922.72,3893.83,923.26Z" transform="translate(-2509.84 -207.29)"/><ellipse class="cls-7" cx="2632.18" cy="748.76" rx="38.57" ry="44.85" transform="translate(-2608.4 720.44) rotate(-19.63)"/><ellipse class="cls-7" cx="2662.32" cy="833.26" rx="38.57" ry="44.85" transform="translate(-2635.04 735.47) rotate(-19.63)"/><rect class="cls-11" x="657.18" y="375.87" width="135.83" height="44.44" rx="21.1"/><path class="cls-7" d="M2735.61,952.64l-20-56.09a36.62,36.62,0,0,1-16-44.82l-20.39-57.18a37.68,37.68,0,0,1-9.6-26.92l-10.29-28.83c-.88-2.48-3.35-3.89-5.49-3.13l-48.78,17.4c-2.13.76-3.15,3.41-2.27,5.89l8.61,24.14a37.09,37.09,0,0,1,14,39.3l20,48.75c8.62,3.27,12.81,8.7,16.47,19s3,21.74-1.61,29.73l17.84,50.29a36.73,36.73,0,0,1,15.65,43.87l6.09,17.09c.89,2.48,3.36,3.89,5.49,3.13l48.79-17.4c2.13-.76,3.15-3.42,2.27-5.9l-6.77-19a37.11,37.11,0,0,1-14-39.31Z" transform="translate(-2509.84 -207.29)"/><ellipse class="cls-7" cx="2698.4" cy="934.41" rx="38.57" ry="44.85" transform="translate(-2666.92 753.47) rotate(-19.63)"/><ellipse class="cls-7" cx="2732.14" cy="1029.02" rx="38.57" ry="44.85" transform="translate(-2696.74 770.3) rotate(-19.63)"/><path class="cls-8" d="M2735.36,1035.73c0-.15-1.36-15.11-21.28-35.85l-.07-.08c-1-1.14-25-28.33-14.7-58.64,9-26.41-21.93-64.83-23.8-67.11-2.18-2.17-26.68-27.23-19.44-49.24l.06-.15c.34-.89,8.11-22.28-16.92-43.25-21.68-18.16-12.15-48.41-11.73-49.68l5.71,1.85c-.09.28-8.67,27.69,9.87,43.23,27.9,23.37,19.43,48,18.69,49.94-6.18,19,17.84,42.9,18.08,43.14l.21.21c1.44,1.74,35.22,42.74,25,73-9,26.52,12.54,51.64,13.45,52.68,21.58,22.49,22.85,38.88,22.89,39.56l-6,.38,3-.19Z" transform="translate(-2509.84 -207.29)"/><ellipse class="cls-10" cx="2703.04" cy="590.11" rx="38.57" ry="44.85" transform="translate(-2573.34 352.85) rotate(-11.69)"/><ellipse class="cls-10" cx="2721.22" cy="677.95" rx="38.57" ry="44.85" transform="translate(-2590.76 358.36) rotate(-11.69)"/><path class="cls-10" d="M2777.33,806.31,2765.26,748a36.62,36.62,0,0,1-9.64-46.6L2743.31,642a37.8,37.8,0,0,1-5.79-28l-6.21-30c-.53-2.59-2.78-4.32-5-3.86l-50.72,10.5c-2.22.46-3.59,2.94-3.06,5.52l5.19,25.09a37,37,0,0,1,8.46,40.86l13.06,51c8.09,4.43,11.49,10.39,13.7,21.06s0,21.94-5.7,29.22L2718,815.69a36.72,36.72,0,0,1,9.44,45.62l3.68,17.76c.53,2.58,2.79,4.31,5,3.86l50.71-10.5c2.22-.46,3.6-2.95,3.06-5.53l-4.08-19.73a37.09,37.09,0,0,1-8.46-40.86Z" transform="translate(-2509.84 -207.29)"/><ellipse class="cls-10" cx="2742.99" cy="783.12" rx="38.57" ry="44.85" transform="translate(-2611.63 364.95) rotate(-11.69)"/><ellipse class="cls-10" cx="2763.35" cy="881.48" rx="38.57" ry="44.85" transform="translate(-2631.14 371.12) rotate(-11.69)"/><path class="cls-8" d="M2761.54,870.18c-.07-.1-6.43-9.66-12.19-20.27-1.64-2.47-20.44-32-6.38-60,12.53-24.92-12.78-67.24-14.31-69.75-1.86-2.46-22.67-30.66-12.46-51.46l.08-.14c.45-.83,11.11-20.94-10.79-45.17-19-21-5.35-49.62-4.76-50.83l5.4,2.63c-.13.26-12.41,26.23,3.81,44.17,24.41,27,12.62,50.2,11.62,52-8.76,18,11.74,45,12,45.22l.17.24c1.19,1.92,29,47.2,14.65,75.73-12.78,25.43,5.89,53.78,6.08,54.07l.14.24c5.66,10.42,11.92,19.83,12,19.92Z" transform="translate(-2509.84 -207.29)"/><ellipse class="cls-10" cx="2782.14" cy="967.53" rx="38.57" ry="44.85" transform="translate(-2648.2 376.72) rotate(-11.69)"/><path class="cls-10" d="M2838.26,1095.9l-12.08-58.33a36.61,36.61,0,0,1-9.64-46.59l-12.3-59.45a37.75,37.75,0,0,1-5.8-28l-6.2-30c-.54-2.58-2.79-4.32-5-3.86l-50.71,10.5c-2.22.46-3.6,2.94-3.07,5.53l5.2,25.09a37.06,37.06,0,0,1,8.45,40.86l13.06,51c8.09,4.42,11.49,10.38,13.7,21s0,22-5.69,29.22l10.72,52.27a36.74,36.74,0,0,1,9.45,45.62l3.67,17.76c.54,2.58,2.79,4.32,5,3.86l50.71-10.5c2.22-.46,3.6-3,3.07-5.53l-4.09-19.72a37.07,37.07,0,0,1-8.45-40.86Z" transform="translate(-2509.84 -207.29)"/><ellipse class="cls-10" cx="2803.91" cy="1072.7" rx="38.57" ry="44.85" transform="translate(-2669.06 383.31) rotate(-11.69)"/><path class="cls-12" d="M2764.35,863.48" transform="translate(-2509.84 -207.29)"/><path class="cls-8" d="M2832.52,1178.58l-6-.43c0-.15.73-15.15-16.13-38.45l-.22-.34c-1.24-2.34-30.42-57.57-16.13-86,12.83-25.54-6.51-56.33-6.71-56.64-.95-1.49-23.12-36.63-13.32-57.83.5-4.78,4.1-45-13-69.72l4.93-3.42c19.42,28,14.2,72.46,14,74.34l-.06.5-.22.45c-8.9,18.12,12.54,52.11,12.76,52.45.88,1.38,21.36,34,7,62.57-12.54,24.93,14.19,76.89,16,80.3C2833.57,1161.55,2832.57,1177.9,2832.52,1178.58Z" transform="translate(-2509.84 -207.29)"/><rect class="cls-11" x="3251.28" y="609.26" width="135.83" height="44.44" rx="21.1" transform="translate(-1529.58 -2014.08) rotate(35.42)"/><path class="cls-13" d="M2639.27,1011.32a33.45,33.45,0,0,1-20.63-63.65" transform="translate(-2509.84 -207.29)"/><path class="cls-13" d="M2664.56,1089.31a37.1,37.1,0,0,1-22.89-70.59" transform="translate(-2509.84 -207.29)"/><path class="cls-13" d="M2634.51,961.83a25.52,25.52,0,0,0-15.74-48.55" transform="translate(-2509.84 -207.29)"/><path class="cls-13" d="M2662.73,1048.85a35,35,0,0,0-21.6-66.6" transform="translate(-2509.84 -207.29)"/><path class="cls-13" d="M2692.1,1139.43a39.75,39.75,0,0,0-24.53-75.63" transform="translate(-2509.84 -207.29)"/><path class="cls-13" d="M2832.32,943.93A33.45,33.45,0,1,1,2841,877.6" transform="translate(-2509.84 -207.29)"/><path class="cls-13" d="M2821.64,1025.23a37.11,37.11,0,1,1,9.67-73.59" transform="translate(-2509.84 -207.29)"/><path class="cls-13" d="M2849.29,897.2a25.52,25.52,0,0,0,6.65-50.6" transform="translate(-2509.84 -207.29)"/><path class="cls-13" d="M2837.37,987.91a35,35,0,0,0,9.12-69.42" transform="translate(-2509.84 -207.29)"/><path class="cls-13" d="M2825,1082.32a39.75,39.75,0,1,0,10.36-78.83" transform="translate(-2509.84 -207.29)"/><rect class="cls-11" x="647.17" y="360.04" width="98.37" height="125.01" rx="46.68"/><path class="cls-5" d="M3156.42,613.82a47.09,47.09,0,0,1,47-47h5a47.09,47.09,0,0,1,46.95,47v31.84" transform="translate(-2509.84 -207.29)"/><rect class="cls-14" x="656.67" y="393.02" width="90.2" height="55.98" rx="25.12"/><rect class="cls-15" x="665.57" y="396.58" width="88.02" height="52.62" rx="22.95"/><path class="cls-16" d="M3231.88,605.25h-9.13L3242.64,652a24.7,24.7,0,0,0,13.87-22.13h0A24.7,24.7,0,0,0,3231.88,605.25Z" transform="translate(-2509.84 -207.29)"/><path class="cls-16" d="M3179.56,629.88h0a24.7,24.7,0,0,0,24.63,24.62h16.94l-20.82-48.94A24.72,24.72,0,0,0,3179.56,629.88Z" transform="translate(-2509.84 -207.29)"/><path class="cls-17" d="M3204.19,605.25a24.77,24.77,0,0,0-3.88.31l20.82,48.94h10.75a24.45,24.45,0,0,0,10.76-2.49l-19.89-46.76Z" transform="translate(-2509.84 -207.29)"/><path class="cls-18" d="M3243.65,659.09h-43.12a26,26,0,0,1-26-26v-6.73a26,26,0,0,1,26-25.94h43.12a26,26,0,0,1,25.94,25.94v6.73A26,26,0,0,1,3243.65,659.09Zm-43.12-52.62a20,20,0,0,0-20,19.94v6.73a20,20,0,0,0,20,20h43.12a20,20,0,0,0,19.94-20v-6.73a20,20,0,0,0-19.94-19.94Z" transform="translate(-2509.84 -207.29)"/><rect class="cls-5" x="691.19" y="436.39" width="42.46" height="41.54" rx="20.77"/><circle class="cls-18" cx="721.25" cy="457.23" r="21.1"/><circle class="cls-5" cx="721.45" cy="457.36" r="13.85"/><circle class="cls-19" cx="721.45" cy="457.36" r="9.1"/><rect class="cls-19" x="3184.54" y="662.69" width="25.35" height="21.27" rx="10.63" transform="translate(-2547.14 928.03) rotate(-20.02)"/><rect class="cls-5" x="673.58" y="456.83" width="20.84" height="20.84" rx="10.42"/><circle class="cls-14" cx="682.43" cy="467.46" r="7.04"/><path class="cls-20" d="M2809.87,1229.6a32.18,32.18,0,0,1-23.1-9.85l-1.62-1.69h109.1a18.07,18.07,0,0,0,18.19-17.89c0-.27,0-.55,0-.86h-21.82a17.13,17.13,0,0,1-17-17v-2.53a17.13,17.13,0,0,1,17-17h26.52l3.56-31-1.13.12-37.48,1-33.08-.59-33.94-.5-3-.79a17.2,17.2,0,0,1-13.19-16.57v-2.54c0-.45,0-.9.07-1.34a16.7,16.7,0,0,1,2.25-7.17,17,17,0,0,1,11.46-8.19,16.47,16.47,0,0,1,3.26-.33h32.15a15.16,15.16,0,0,0,10.14-8.28,14.88,14.88,0,0,0,1.42-6.33v-2.53a15,15,0,0,0-1.82-7.15,14.78,14.78,0,0,0-1.93-2.73,15.16,15.16,0,0,0-3.65-3h-24.08a17,17,0,0,1-11-4,17.29,17.29,0,0,1-4.39-5.67,16.91,16.91,0,0,1-1.68-7.33v-2.53a17,17,0,0,1,2.31-8.52l.29-.5h62a37.87,37.87,0,0,1,35.53,25.14c.24.67.46,1.38.69,2.16a37.39,37.39,0,0,1-.52,22.48h62.17a37.75,37.75,0,0,1,37.7,37.71v13a37.56,37.56,0,0,1-12.63,28.1,17.29,17.29,0,0,1,7,7.06,31,31,0,0,1,14.93,26.49c0,17.26-14.27,31.3-31.8,31.3Zm111.52-67.22a15.16,15.16,0,0,0,10.38-14.28v-2.53a15,15,0,0,0-9-13.75Z" transform="translate(-2509.84 -207.29)"/><path class="cls-20" d="M2920.33,1163.71c-.24.06-.49.11-.73.15.24,0,.49-.09.73-.15h-29.74a16,16,0,0,0-10.79,4.22,16.19,16.19,0,0,0-3.9,5.42,15.87,15.87,0,0,0-1.35,6.39v2.54a16.13,16.13,0,0,0,16,16h22.74c.06.61.11,1.23.11,1.86a19.1,19.1,0,0,1-19.19,18.89H2787.49a31,31,0,0,0,22.38,9.54h178.87c16.94,0,30.8-13.63,30.8-30.3a30.25,30.25,0,0,0-14.69-25.78,15.39,15.39,0,0,1,1.75,7.11v.11a15.84,15.84,0,0,0-1.75-7.22,16.15,16.15,0,0,0-8-7.53h0a36.68,36.68,0,0,0,13.43-28.33v-13a36.81,36.81,0,0,0-36.7-36.71H2910a36.36,36.36,0,0,0,1-23.2c-.2-.71-.43-1.41-.67-2.11a36.83,36.83,0,0,0-34.53-24.46H2814.3a15.87,15.87,0,0,0-2.18,8v2.53a15.78,15.78,0,0,0,1.59,6.89,16.24,16.24,0,0,0,4.12,5.35,16,16,0,0,0,10.32,3.79h24.35a16.23,16.23,0,0,1,4.13,3.38,16.62,16.62,0,0,1,2.06,2.91h0a15.92,15.92,0,0,1,1.94,7.63v2.53a15.72,15.72,0,0,1-1.52,6.75,16.09,16.09,0,0,1-10.92,8.86h-32.27a15.52,15.52,0,0,0-3.07.31,16.11,16.11,0,0,0-10.79,7.71,15.91,15.91,0,0,0-2.11,6.75c0,.42-.07.84-.07,1.26v2.54a15.69,15.69,0,0,0,.25,2.67,16.09,16.09,0,0,0,12.2,12.93l2.85.77,33.82.49,33,.59,37.41-1,2.37-.24m0-.15a16.06,16.06,0,0,1,10.95,15.18v2.53a16.08,16.08,0,0,1-12.44,15.61l-2.34.12m-73.39-67.61c.39,0,.78,0,1.17-.06-.39,0-.77.06-1.17.06Zm1.37-.07c.46,0,.9-.1,1.34-.18C2846.87,1096.05,2846.43,1096.11,2846,1096.15Zm59.94,68.48a15.76,15.76,0,0,0,3.24.35A15.76,15.76,0,0,1,2905.91,1164.63Z" transform="translate(-2509.84 -207.29)"/><path class="cls-21" d="M2742,1230.13l0-.16a20.8,20.8,0,0,1-18.71-20.65,20,20,0,0,1,.18-2.64h-113a37.64,37.64,0,0,1-33.26-55.39l1.05-2,.77,2.09a14.4,14.4,0,0,0,13.45,9.44h63.19a14.33,14.33,0,0,0,9.18-3.35l.67-.56.11.1a14.3,14.3,0,0,0,4.43-10.31v-2.55a14.43,14.43,0,0,0-14.35-14.34h-3.35l.07-1.07a37.91,37.91,0,0,1,31.22-34.69,37,37,0,0,1,.49-4,37.89,37.89,0,0,1,17.23-25.43,37.47,37.47,0,0,1,19.89-5.71h7.59a38.14,38.14,0,0,1,24.32-21.34l3.21-.92-2.18,2.53a16.29,16.29,0,0,0-4,10.6,16.1,16.1,0,0,0,3.13,9.54,16.45,16.45,0,0,0,6,5.07h28.54a20.06,20.06,0,0,1,8.22,1.77,20.27,20.27,0,0,1,12,18.42,20.31,20.31,0,0,1-20.19,20.2h-32.21a18.15,18.15,0,0,0-15.79,27.19c.16.27.32.54.49.8a18.44,18.44,0,0,0,8.71,7.13h71.28a20,20,0,0,1,7.13,1.33,20.52,20.52,0,0,1,8.24,5.82,20.16,20.16,0,0,1,4.82,13.05,20.28,20.28,0,0,1-20.19,20.19H2785.8v-.55l0,0v.57h-1c-4.57.82-9.18,3.86-12.49,8.22h29.31a20.78,20.78,0,1,1,0,41.56h-12.84l-.92,0Z" transform="translate(-2509.84 -207.29)"/><path class="cls-21" d="M2835,1147.73a19.26,19.26,0,0,0-7.83-5.53,18.91,18.91,0,0,0-6.78-1.27H2749a19.28,19.28,0,0,1-9.36-7.59q-.27-.42-.51-.84a19.21,19.21,0,0,1,16.65-28.69h32.21a19.18,19.18,0,0,0,7.81-36.7,18.91,18.91,0,0,0-7.81-1.69h-28.77a17.45,17.45,0,0,1-6.59-5.48,17.14,17.14,0,0,1,.88-21.38,37,37,0,0,0-23.93,21.38h-8.25a36.42,36.42,0,0,0-19.36,5.56,36.86,36.86,0,0,0-16.77,24.75h0a34.51,34.51,0,0,0-.53,4.69h0a36.86,36.86,0,0,0-31.18,33.9h2.29a15.43,15.43,0,0,1,15.35,15.34v2.55a15.33,15.33,0,0,1-5.42,11.66l-.15-.13a15.21,15.21,0,0,1-9.82,3.59H2592.5a15.39,15.39,0,0,1-14.39-10.09,36.29,36.29,0,0,0-4.33,17.22h0a36.82,36.82,0,0,0,36.71,36.7h114.14a19.69,19.69,0,0,0,18.28,23.36.28.28,0,0,0,0,.09h44.88v0h13.75a19.78,19.78,0,1,0,0-39.56h-31.27c.22-.32.43-.63.67-.93,3.35-4.73,8.39-8.37,13.69-9.29h1.12l-.16.26.19-.26h34.62a19.16,19.16,0,0,0,14.61-31.59Zm-148.46-54.12c-.24-.44-.45-.89-.66-1.34C2686.12,1092.72,2686.33,1093.17,2686.57,1093.61Z" transform="translate(-2509.84 -207.29)"/><path class="cls-22" d="M2756.52,1229.93l-.22-.7a6.84,6.84,0,0,1-.31-2c0-4.88,5.25-8.84,11.71-8.84h8.81a20.29,20.29,0,0,1-10.61-17.74,21.8,21.8,0,0,1,4.29-12.38c3.92-5.53,9.6-9.18,15.26-9.83l.08-.1h.92l1.48-.13-.09.13h32.58a18.16,18.16,0,0,0,13.84-30,18.4,18.4,0,0,0-7.42-5.24,18.12,18.12,0,0,0-6.42-1.2h-71.66l-.17-.06a20.48,20.48,0,0,1-9.84-8c-.19-.29-.37-.59-.54-.89a20.21,20.21,0,0,1,17.52-30.18h32.21a18.2,18.2,0,0,0,0-36.39h-29l-.21-.1a18.39,18.39,0,0,1-7-5.8,18.12,18.12,0,0,1,.94-22.61l.19-.23.29-.08a37.36,37.36,0,0,1,10.27-1.45H2816l-.88,1.51a15,15,0,0,0-2,7.51v2.53a14.76,14.76,0,0,0,1.49,6.46,15.2,15.2,0,0,0,3.87,5,15,15,0,0,0,9.67,3.56h24.62l.23.13a17.63,17.63,0,0,1,6.57,6.69,17,17,0,0,1,2.06,8.1v2.53a16.79,16.79,0,0,1-1.61,7.18,17.21,17.21,0,0,1-11.61,9.41l-.11,0h-32.38a15.09,15.09,0,0,0-13,7.52,14.67,14.67,0,0,0-2,6.33c0,.39-.07.78-.07,1.18v2.54a15.13,15.13,0,0,0,15,15h100l1.48,0c.83,0,1.79-.06,2.65-.06a14.47,14.47,0,0,1,1.88.09l.15,0a17,17,0,0,1,11.71,16.15v2.53a17.18,17.18,0,0,1-13.22,16.59l-.11,0h-29.85a15.1,15.1,0,0,0-15,15v2.53a15.14,15.14,0,0,0,15,15h23.58l0,.24a16.25,16.25,0,0,1-2.38,32.32h-96.93l-.75.06Z" transform="translate(-2509.84 -207.29)"/><path class="cls-22" d="M2921.82,1130.39l-.06,0a57.18,57.18,0,0,0-5.86,0h-100a15.75,15.75,0,0,1-3.59-.43,16.09,16.09,0,0,1-12.2-12.93,15.69,15.69,0,0,1-.25-2.67v-2.54c0-.42,0-.84.07-1.26a15.91,15.91,0,0,1,2.11-6.75,16.11,16.11,0,0,1,10.79-7.71,15.52,15.52,0,0,1,3.07-.31h32.27a16.09,16.09,0,0,0,10.92-8.86,15.72,15.72,0,0,0,1.52-6.75v-2.53a15.92,15.92,0,0,0-1.94-7.63h0a16.62,16.62,0,0,0-2.06-2.91,16.23,16.23,0,0,0-4.13-3.38h-24.35a16,16,0,0,1-10.32-3.79,16.24,16.24,0,0,1-4.12-5.35,15.78,15.78,0,0,1-1.59-6.89v-2.53a15.87,15.87,0,0,1,2.18-8h-50.84a36.38,36.38,0,0,0-10,1.41,17.14,17.14,0,0,0-.88,21.38,17.45,17.45,0,0,0,6.59,5.48h28.77a18.91,18.91,0,0,1,7.81,1.69,19.23,19.23,0,0,1,11.38,17.5,19.3,19.3,0,0,1-19.19,19.2h-32.21a19,19,0,0,0-9.38,2.48,19.08,19.08,0,0,0-7.27,26.21q.24.42.51.84a19.28,19.28,0,0,0,9.36,7.59h71.47a18.91,18.91,0,0,1,6.78,1.27h0a19.25,19.25,0,0,1,12.41,17.93,19.28,19.28,0,0,1-19.19,19.19H2786c-.13.16-.24.32-.36.48l.28-.42c-5.75.52-11.31,4.35-14.93,9.45h0a20.79,20.79,0,0,0-4.1,11.8,19.12,19.12,0,0,0,.76,5.27,19.35,19.35,0,0,0,12.72,13c.06.15.13.29.19.44H2767.7c-5.89,0-10.71,3.53-10.71,7.84h0a5.83,5.83,0,0,0,.27,1.72h56.88s0,0,0-.06h97.66a15.3,15.3,0,0,0,15.24-15.25h0a15.28,15.28,0,0,0-13.76-15.17.71.71,0,0,1,0-.14h-22.7a16.13,16.13,0,0,1-16-16v-2.54a15.87,15.87,0,0,1,1.35-6.39,16.19,16.19,0,0,1,3.9-5.42,16,16,0,0,1,10.79-4.22h29.74a16.08,16.08,0,0,0,12.44-15.61v-2.53A16.06,16.06,0,0,0,2921.82,1130.39Zm-149.55,57a19.51,19.51,0,0,1,2.93-2.51A19.51,19.51,0,0,0,2772.27,1187.37Z" transform="translate(-2509.84 -207.29)"/><path class="cls-20" d="M2592.55,1163.07a16.43,16.43,0,0,1-15.34-10.75l-.15-.42.21-.4a38.17,38.17,0,0,1,8.28-10.48l1.74-1.53-.07,2.31v.16a8.3,8.3,0,0,0,8.27,8.38h51.19a8.33,8.33,0,0,0,8-6.19,37,37,0,0,1-1.93-7.7,8.29,8.29,0,0,0-6.07-2.67h-40.59l-.12-2a36.19,36.19,0,0,1,4.57-.29h41.83v-.27c0-.74,0-1.52.09-2.46l.06-.93h3.22a16.41,16.41,0,0,1,16.35,16.34v2.55a16.4,16.4,0,0,1-16.35,16.34Z" transform="translate(-2509.84 -207.29)"/><path class="cls-20" d="M2665.63,1132.5a15.22,15.22,0,0,0-9.9-3.66h-2.29c-.05.79-.08,1.59-.08,2.39h0c0,.42,0,.84,0,1.27h-42.86a36.29,36.29,0,0,0-4.45.28h40.59a9.28,9.28,0,0,1,7,3.23,36.38,36.38,0,0,0,2,8.08,9.32,9.32,0,0,1-9,7.25h-51.19a9.31,9.31,0,0,1-9.28-9.28,2.83,2.83,0,0,1,0-.29,36.92,36.92,0,0,0-8.07,10.21,15.39,15.39,0,0,0,14.4,10.09h63.18a15.41,15.41,0,0,0,15.35-15.34v-2.55A15.31,15.31,0,0,0,2665.63,1132.5Z" transform="translate(-2509.84 -207.29)"/><path class="cls-22" d="M2595.48,1152.34a10.3,10.3,0,0,1-10.28-10.28c0-.08,0-.16,0-.24l0-.43.32-.37a37.47,37.47,0,0,1,20.41-9.23h40.71a10.28,10.28,0,0,1,0,20.56Z" transform="translate(-2509.84 -207.29)"/><path class="cls-22" d="M2586.2,1142.06a9.31,9.31,0,0,0,9.28,9.28h51.19a9.28,9.28,0,0,0,0-18.56h-40.59a36.54,36.54,0,0,0-19.86,9A2.83,2.83,0,0,0,2586.2,1142.06Z" transform="translate(-2509.84 -207.29)"/><path class="cls-23" d="M2690.37,1228.8c-.27,0-.55,0-.82,0-5.5-.5-53.93-5.67-61.23-32.9a8.93,8.93,0,1,1,17.26-4.62c3.22,12,32.11,18.48,45.59,19.73a8.93,8.93,0,0,1-.8,17.83Z" transform="translate(-2509.84 -207.29)"/><path class="cls-24" d="M2715.5,1224.52c-.35,0-.71,0-1.06,0a12.91,12.91,0,0,1-11.81-13.92l7.46-91.1a12.9,12.9,0,1,1,25.72,2.11l-7.46,91.1A12.91,12.91,0,0,1,2715.5,1224.52Z" transform="translate(-2509.84 -207.29)"/><path class="cls-23" d="M2756.13,1229.5a62.09,62.09,0,0,1-16.82-2.24,8.93,8.93,0,0,1,5-17.16c1.16.32,27.45,7.48,39-11.72a8.94,8.94,0,0,1,15.33,9.19C2788.27,1224.7,2770.66,1229.5,2756.13,1229.5Z" transform="translate(-2509.84 -207.29)"/><path class="cls-23" d="M2735.52,1235.08a8.93,8.93,0,0,1-4-16.92c9.35-4.68,15.87-20.71,17.42-26a8.94,8.94,0,0,1,17.14,5.06c-.84,2.83-8.69,27.94-26.57,36.88A8.88,8.88,0,0,1,2735.52,1235.08Z" transform="translate(-2509.84 -207.29)"/><path class="cls-23" d="M2712,1157.9c-.21,0-.43,0-.65,0a34.93,34.93,0,0,1-22.8-12.6c-7.76-9.44-10.72-22.71-8.79-39.42a7.94,7.94,0,1,1,15.78,1.82c-1.4,12.13.32,21.32,5.12,27.32a19.38,19.38,0,0,0,12.07,7.06,7.9,7.9,0,0,1,7.23,8.55A8,8,0,0,1,2712,1157.9Z" transform="translate(-2509.84 -207.29)"/><path class="cls-25" d="M2693.26,1222.66c-4.51-1.7-43.89-18.84-37.91-96.33.51-6.56,6.63-11.52,13.68-11s12.35,6.17,11.84,12.73c-4.63,60,22.05,72.55,22.32,72.67l-.34-.14Z" transform="translate(-2509.84 -207.29)"/><path class="cls-25" d="M2661.7,1173.43l-.75,0c-9.1-.76-26.94-9-29.36-34.78a8.93,8.93,0,0,1,17.79-1.66c1.64,17.48,12.94,18.62,13,18.63a8.94,8.94,0,0,1-.73,17.84Z" transform="translate(-2509.84 -207.29)"/><path class="cls-25" d="M2745.33,1191.52a10.92,10.92,0,0,1-3.51-21.26c1-.36,21.45-7.85,26.62-31.29a10.92,10.92,0,1,1,21.33,4.71c-7.92,35.87-39.64,46.82-41,47.27A11,11,0,0,1,2745.33,1191.52Z" transform="translate(-2509.84 -207.29)"/><path class="cls-26" d="M2748,1140.85c.19-3.23,2-6,5.26-5.85l1.64.1a5.89,5.89,0,0,1,4.79,3.06c0-.41,0-.81,0-1.22a13.9,13.9,0,0,0-27.77,1c2.07,55.29-14.25,70.07-20.71,71.1a4,4,0,0,1,.77,0l.9,27.27c2.25-.07,14.09-1,25.49-13,5.65-5.94,10.18-13.54,13.61-22.7a5.88,5.88,0,0,1-1,0l-1.64-.1" transform="translate(-2509.84 -207.29)"/><path class="cls-25" d="M2759.78,1151.2l-1.21,19.88Q2759.62,1161.76,2759.78,1151.2Z" transform="translate(-2509.84 -207.29)"/><path class="cls-25" d="M2759.78,1151.2l.59-9.76a5.76,5.76,0,0,0-.68-3.17C2759.84,1142.72,2759.84,1147,2759.78,1151.2Z" transform="translate(-2509.84 -207.29)"/><path class="cls-25" d="M2748.21,1141c.2-3.23,1.73-6.12,5-5.92l1.67.1a6,6,0,0,1,4.84,3.07c.15,4.46.16,8.84.1,13l-1.21,19.88a123.87,123.87,0,0,1-6.67,29.54,5.88,5.88,0,0,1-1,0l-1.64-.1s-8.11-.38-5.59-9.13C2743.64,1191.43,2749.92,1177.74,2748.21,1141Z" transform="translate(-2509.84 -207.29)"/><path class="cls-26" d="M2777.62,1176.08a34.45,34.45,0,0,1-12.63-2.45,6.95,6.95,0,0,1,5.41-12.8c.2.08,7,2.78,12.68.29,3.18-1.41,5.52-4.29,7.17-8.82a6.95,6.95,0,0,1,13.06,4.75c-3,8.22-8,13.89-14.77,16.85A27.39,27.39,0,0,1,2777.62,1176.08Z" transform="translate(-2509.84 -207.29)"/><path class="cls-27" d="M2710,1236.51a13.84,13.84,0,0,1-10.49-4.78c-1.16-1.32-28.1-32.9-18.77-73.49a13.9,13.9,0,1,1,27.09,6.23c-6.1,26.52,12.46,48.8,12.65,49a13.9,13.9,0,0,1-10.48,23Z" transform="translate(-2509.84 -207.29)"/><path class="cls-25" d="M2720.48,1213.49a68.26,68.26,0,0,1-12.26-25.13V1205a14.86,14.86,0,0,1-14.82,14.82h0a14.12,14.12,0,0,1-2.17-.18,80.85,80.85,0,0,0,8.28,12,13.9,13.9,0,1,0,21-18.24Z" transform="translate(-2509.84 -207.29)"/><path class="cls-26" d="M2693.4,1167.24h0a14.84,14.84,0,0,1,13.21,8.15,48.61,48.61,0,0,1,1.22-10.92,13.9,13.9,0,1,0-27.09-6.23,76.86,76.86,0,0,0-1.86,20.86A14.88,14.88,0,0,1,2693.4,1167.24Z" transform="translate(-2509.84 -207.29)"/><path class="cls-25" d="M2693.4,1219.86a14.86,14.86,0,0,0,14.82-14.82v-16.68a54.76,54.76,0,0,1-1.61-13,14.84,14.84,0,0,0-13.21-8.15h0a14.88,14.88,0,0,0-14.52,11.86c.78,17,6.94,31.21,12.35,40.58a14.12,14.12,0,0,0,2.17.18Z" transform="translate(-2509.84 -207.29)"/><ellipse class="cls-24" cx="235.5" cy="930.9" rx="7.46" ry="7.07"/><ellipse class="cls-23" cx="270.12" cy="932.03" rx="5.43" ry="5.15"/><ellipse class="cls-24" cx="185.07" cy="953.18" rx="6.11" ry="5.79"/><ellipse class="cls-23" cx="158.56" cy="921.18" rx="6.11" ry="5.79"/><ellipse class="cls-23" cx="213.26" cy="911.26" rx="6.82" ry="6.47"/><path class="cls-26" d="M2723.32,1131a12.6,12.6,0,1,1,0-25.18,3.5,3.5,0,0,1,0,7,5.61,5.61,0,1,0,6.1,5.59,3.5,3.5,0,0,1,7,0A12.87,12.87,0,0,1,2723.32,1131Z" transform="translate(-2509.84 -207.29)"/><rect class="cls-26" x="160.63" y="933.52" width="6.81" height="21.21" rx="2.95"/><rect class="cls-26" x="121.23" y="913.62" width="16.49" height="21.6" rx="8.25"/><rect class="cls-26" x="2784.21" y="1189.23" width="16.49" height="21.6" rx="8.25" transform="matrix(0.83, 0.56, -0.56, 0.83, -1360.86, -1563.98)"/><ellipse class="cls-25" cx="210.07" cy="1012.84" rx="14.04" ry="14.4"/><path class="cls-25" d="M2715.62,1213.79h2.28a7.25,7.25,0,0,1,7.25,7.25v12.08a7.25,7.25,0,0,1-7.25,7.25h-2.67a7.25,7.25,0,0,1-7.25-7.25v-11.69a7.65,7.65,0,0,1,7.65-7.65Z" transform="translate(-274.64 3961.51) rotate(-105.02)"/><path class="cls-28" d="M3704,588.27l10.76,5.09a1.38,1.38,0,0,0,1.86-1.38l.41-9.85a1.38,1.38,0,0,0-1.73-1.53l-11.14,4.12" transform="translate(-2509.84 -207.29)"/><rect class="cls-29" x="3714.2" y="582.52" width="2.6" height="9.33" rx="0.95" transform="translate(-2477.7 -383.35) rotate(2.73)"/><rect class="cls-30" x="1180.28" y="385.08" width="20.05" height="13.8" rx="6.9"/><rect class="cls-30" x="3688.57" y="565.87" width="20.77" height="14.3" rx="7.15" transform="translate(-2545.42 113.09) rotate(-4.94)"/><rect class="cls-31" x="1154.94" y="360.32" width="45.31" height="37.82" rx="18.91"/><path class="cls-32" d="M3685.25,590.29a4.88,4.88,0,0,1-.46.88,4.9,4.9,0,1,1,.46-.88Z" transform="translate(-2509.84 -207.29)"/><circle class="cls-32" cx="1166.93" cy="391.31" r="1.13"/><polyline class="cls-32" points="1167.98 391.73 1174.64 384.31 1166.24 380.95 1165.89 390.89"/><path class="cls-33" d="M3668.07,596.7a1.76,1.76,0,0,1-.35.15,2.24,2.24,0,0,1-2.45-1.16,1.92,1.92,0,1,1,2.8,1Z" transform="translate(-2509.84 -207.29)"/><ellipse class="cls-33" cx="3663.3" cy="596.87" rx="0.43" ry="0.54" transform="translate(-2298.16 1754.24) rotate(-30.83)"/><polyline class="cls-33" points="1153.74 390.05 1157.68 389.61 1155.43 385.87 1153.18 389.12"/><circle class="cls-34" cx="1165.65" cy="382.55" r="2.79"/><path class="cls-35" d="M3689.83,601.69a.52.52,0,0,1-.21,0,.69.69,0,0,1-.46-.87,3.24,3.24,0,0,0-.25-2.55,7.42,7.42,0,0,1-1.44-3.87,10.74,10.74,0,0,1,1-4.57,4.6,4.6,0,0,0-.06-3.37,28.2,28.2,0,0,1-1.81-5.91c-.35-2.54,1.59-6.78,1.67-7a.71.71,0,0,1,.93-.34.7.7,0,0,1,.35.93c-.52,1.12-1.81,4.41-1.56,6.18a28.23,28.23,0,0,0,1.7,5.55,5.86,5.86,0,0,1,0,4.58,9.45,9.45,0,0,0-.8,3.87h0a6.13,6.13,0,0,0,1.14,3,4.61,4.61,0,0,1,.49,3.83A.71.71,0,0,1,3689.83,601.69Z" transform="translate(-2509.84 -207.29)"/><path class="cls-35" d="M3694.64,598.27a.72.72,0,0,1-.61-.35c-.36-.62-3.43-6.11-1.2-8.55a2.66,2.66,0,0,0,.1-3.48c-2.87-3.28-.3-9.42-.18-9.68a.69.69,0,0,1,.92-.37.71.71,0,0,1,.37.92s-2.34,5.59,0,8.23a4.06,4.06,0,0,1-.15,5.33c-1.3,1.42.61,5.56,1.39,6.89a.7.7,0,0,1-.26,1A.74.74,0,0,1,3694.64,598.27Z" transform="translate(-2509.84 -207.29)"/><path class="cls-35" d="M3698.85,593.92a.66.66,0,0,1-.44-.16,4.4,4.4,0,0,1-1.24-5.65c.16-.36.57-1.69,0-2.27-1.22-1.28-.39-4.85-.22-5.55a.7.7,0,0,1,.86-.51.69.69,0,0,1,.5.85c-.42,1.67-.57,3.78-.12,4.24,1.33,1.39.27,3.78.22,3.88a3,3,0,0,0,.87,3.92.7.7,0,0,1-.44,1.25Z" transform="translate(-2509.84 -207.29)"/><path class="cls-36" d="M3702.37,606.14a.71.71,0,0,1,0-1.41c3,0,5.61-1.43,6.56-3.47s.28-4.28-1.78-6.79a.69.69,0,0,1,.09-1,.7.7,0,0,1,1,.09c3.07,3.73,2.77,6.55,2,8.27-1.19,2.56-4.25,4.24-7.81,4.29Z" transform="translate(-2509.84 -207.29)"/><path class="cls-37" d="M3707.08,578.51a1.06,1.06,0,0,1-.87-1.64c1.47-2.21,1.73-4.92.65-6.74s-3.45-2.68-6.65-2.39a1.07,1.07,0,0,1-1.14-1,1.05,1.05,0,0,1,1-1.14c5.46-.49,7.75,1.93,8.63,3.41,1.52,2.55,1.24,6.07-.7,9A1.08,1.08,0,0,1,3707.08,578.51Z" transform="translate(-2509.84 -207.29)"/><rect class="cls-38" x="1175.96" y="400.4" width="9.95" height="1.87" rx="0.69"/><rect class="cls-38" x="1174.57" y="399.15" width="9.95" height="1.87" rx="0.69"/><rect class="cls-38" x="1173.27" y="398.19" width="9.95" height="1.87" rx="0.69"/><path class="cls-35" d="M3687.17,605.7c-1.47,0-3.18,0-5.12-.15-10.14-.58-15.09-9.65-15.29-10a1.05,1.05,0,1,1,1.85-1h0c0,.09,4.62,8.42,13.56,8.93,8.23.47,12-.32,12-.33a19.15,19.15,0,0,0,13.6-11.91c3.32-8.42-5-17-5-17a1.05,1.05,0,0,1,1.5-1.48c.38.39,9.31,9.62,5.5,19.29a21.29,21.29,0,0,1-15.16,13.21A39.71,39.71,0,0,1,3687.17,605.7Z" transform="translate(-2509.84 -207.29)"/><rect class="cls-38" x="1171.97" y="397.1" width="9.95" height="1.87" rx="0.69"/><rect class="cls-38" x="1170.86" y="396.06" width="9.95" height="1.87" rx="0.69"/><rect class="cls-39" x="3688.33" y="605.64" width="8.22" height="1.87" rx="0.69" transform="translate(-1186.34 -2497.29) rotate(41.39)"/><rect class="cls-38" x="3680.11" y="605.57" width="8.22" height="1.87" rx="0.69" transform="translate(-1188.44 -2491.87) rotate(41.39)"/><path class="cls-40" d="M3665.83,589.09a1.05,1.05,0,0,1-1-1,16.81,16.81,0,0,1,.47-5.95,1,1,0,1,1,2,.69,15,15,0,0,0-.36,5.06,1.05,1.05,0,0,1-.94,1.15Z" transform="translate(-2509.84 -207.29)"/><path class="cls-40" d="M3669,577a1,1,0,0,1-.81-1.71c.26-.32,6.36-7.74,13.18-7.6a1.05,1.05,0,0,1,0,2.1h-.18c-5.73,0-11.29,6.76-11.35,6.83A1.06,1.06,0,0,1,3669,577Z" transform="translate(-2509.84 -207.29)"/><path class="cls-28" d="M3678,500.6l27.09,12.81c2.15,1,4.55-.76,4.67-3.47l1-24.8c.11-2.7-2.12-4.68-4.35-3.85l-28,10.37" transform="translate(-2509.84 -207.29)"/><rect class="cls-29" x="3703.79" y="486.14" width="6.55" height="23.49" rx="2.4" transform="matrix(1, 0.05, -0.05, 1, -2481.96, -383.05)"/><rect class="cls-30" x="1133.34" y="303.62" width="50.48" height="34.74" rx="17.37"/><rect class="cls-30" x="3639.28" y="444.22" width="52.29" height="35.98" rx="17.99" transform="translate(-2536.01 109.8) rotate(-4.94)"/><rect class="cls-31" x="1069.54" y="241.3" width="114.05" height="95.19" rx="47.6"/><path class="cls-32" d="M3630.91,505.7a13.26,13.26,0,0,1-1.16,2.21,12.34,12.34,0,1,1,1.16-2.21Z" transform="translate(-2509.84 -207.29)"/><circle class="cls-32" cx="1099.73" cy="319.31" r="2.83"/><polyline class="cls-32" points="1102.36 320.37 1119.12 301.7 1097.99 293.24 1097.1 318.25"/><path class="cls-33" d="M3587.66,521.82a4,4,0,0,1-.88.38c-2.13.65-4.71-.52-6.14-2.92-1.64-2.74-1.15-6,1.1-7.39s5.39-.2,7,2.54S3589.91,520.48,3587.66,521.82Z" transform="translate(-2509.84 -207.29)"/><ellipse class="cls-33" cx="3575.66" cy="522.25" rx="1.09" ry="1.37" transform="translate(-2272.3 1698.79) rotate(-30.83)"/><polyline class="cls-33" points="1066.53 316.14 1076.43 315.04 1070.77 305.61 1065.13 313.78"/><circle class="cls-34" cx="1096.51" cy="297.25" r="7.01"/><path class="cls-35" d="M3642.45,534.37a1.63,1.63,0,0,1-.53-.08,1.77,1.77,0,0,1-1.16-2.21s1.2-4.06-.64-6.42a18.88,18.88,0,0,1-3.63-9.73c0-.32-.09-6.73,2.42-11.49,1.88-3.57-.16-8.43-.18-8.48-.15-.38-3.71-8.8-4.55-14.9-.87-6.37,4-17.05,4.22-17.5a1.76,1.76,0,1,1,3.2,1.47c-1.29,2.82-4.53,11.11-3.92,15.55.77,5.64,4.26,13.9,4.3,14,.1.24,2.74,6.41.05,11.52-2.08,4-2,9.68-2,9.74h0a15.4,15.4,0,0,0,2.89,7.67c3,3.83,1.29,9.4,1.22,9.64A1.75,1.75,0,0,1,3642.45,534.37Z" transform="translate(-2509.84 -207.29)"/><path class="cls-35" d="M3654.55,525.76a1.78,1.78,0,0,1-1.53-.88c-.9-1.56-8.63-15.38-3-21.51,3.83-4.19.42-8.58.27-8.77-7.23-8.24-.76-23.71-.48-24.37a1.77,1.77,0,0,1,3.25,1.39c-.06.14-5.88,14.09-.06,20.72,1.94,2.44,4.29,8.3-.38,13.41-3.27,3.59,1.54,14,3.49,17.36a1.76,1.76,0,0,1-.65,2.41A1.74,1.74,0,0,1,3654.55,525.76Z" transform="translate(-2509.84 -207.29)"/><path class="cls-35" d="M3665.14,514.82a1.79,1.79,0,0,1-1.11-.39,11.08,11.08,0,0,1-3.1-14.23c.39-.91,1.43-4.24,0-5.71-3.08-3.22-1-12.22-.55-14a1.77,1.77,0,0,1,3.43.87c-1.07,4.21-1.45,9.51-.32,10.68,3.34,3.5.67,9.5.56,9.75a7.58,7.58,0,0,0,2.17,9.88,1.76,1.76,0,0,1-1.1,3.14Z" transform="translate(-2509.84 -207.29)"/><path class="cls-36" d="M3674,545.57a1.77,1.77,0,0,1,0-3.53c7.48-.09,14.11-3.61,16.5-8.75,2.26-4.86.71-10.77-4.49-17.08a1.77,1.77,0,0,1,2.73-2.24c7.73,9.38,7,16.5,5,20.81-3,6.44-10.71,10.68-19.66,10.79Z" transform="translate(-2509.84 -207.29)"/><path class="cls-37" d="M3685.86,476a2.64,2.64,0,0,1-2.2-4.11c3.71-5.57,4.37-12.39,1.64-17s-8.67-6.74-16.72-6a2.65,2.65,0,0,1-.47-5.28c13.74-1.23,19.52,4.85,21.74,8.59,3.81,6.4,3.11,15.28-1.78,22.62A2.64,2.64,0,0,1,3685.86,476Z" transform="translate(-2509.84 -207.29)"/><rect class="cls-38" x="1122.46" y="342.18" width="25.05" height="4.71" rx="1.73"/><rect class="cls-38" x="1119.68" y="339.03" width="23.57" height="4.71" rx="1.73"/><rect class="cls-38" x="1116.59" y="336.63" width="24.16" height="4.71" rx="1.73"/><path class="cls-35" d="M3635.75,544.48c-3.71,0-8-.11-12.89-.39-25.51-1.46-38-24.28-38.49-25.25a2.65,2.65,0,0,1,4.67-2.5h0c.11.22,11.63,21.18,34.12,22.47,20.72,1.18,30.21-.8,30.31-.82,1.08-.19,24.22-4.58,34.23-30,8.35-21.19-12.48-42.69-12.69-42.9a2.65,2.65,0,1,1,3.77-3.72c1,1,23.44,24.2,13.84,48.56-11.12,28.24-37,33.05-38.14,33.24C3654.24,543.24,3648.3,544.48,3635.75,544.48Z" transform="translate(-2509.84 -207.29)"/><rect class="cls-38" x="1113.09" y="333.88" width="24.38" height="4.71" rx="1.73"/><rect class="cls-38" x="1109.63" y="331.27" width="25.05" height="4.71" rx="1.73"/><rect class="cls-39" x="3638.66" y="544.31" width="20.69" height="4.71" rx="1.73" transform="translate(-1236.8 -2483.54) rotate(41.39)"/><rect class="cls-38" x="3617.98" y="544.14" width="20.69" height="4.71" rx="1.73" transform="translate(-1242.08 -2469.9) rotate(41.39)"/><path class="cls-40" d="M3582,502.67a2.65,2.65,0,0,1-2.63-2.4c0-.37-.84-9.13,1.18-15a2.65,2.65,0,0,1,5,1.74c-1.38,3.95-1.13,10.53-.92,12.73a2.65,2.65,0,0,1-2.38,2.89Z" transform="translate(-2509.84 -207.29)"/><path class="cls-40" d="M3590.08,472.29A2.65,2.65,0,0,1,3588,468c.65-.8,16-19.49,33.19-19.13a2.65,2.65,0,0,1-.06,5.29h-.45c-14.42,0-28.43,17-28.57,17.18A2.63,2.63,0,0,1,3590.08,472.29Z" transform="translate(-2509.84 -207.29)"/><path class="cls-28" d="M3782.55,536.25l13.63,6.44a1.74,1.74,0,0,0,2.34-1.75l.52-12.47a1.74,1.74,0,0,0-2.18-1.94l-14.11,5.22" transform="translate(-2509.84 -207.29)"/><rect class="cls-29" x="3795.52" y="528.97" width="3.29" height="11.81" rx="1.21" transform="translate(-2480.1 -387.3) rotate(2.73)"/><rect class="cls-30" x="1255.19" y="334.14" width="25.39" height="17.47" rx="8.74"/><rect class="cls-30" x="3763.07" y="507.88" width="26.3" height="18.1" rx="9.05" transform="translate(-2540.31 119.53) rotate(-4.94)"/><rect class="cls-31" x="1223.1" y="302.79" width="57.37" height="47.88" rx="23.94"/><path class="cls-32" d="M3758.86,538.81a7.3,7.3,0,0,1-.58,1.11,6.22,6.22,0,1,1,.58-1.11Z" transform="translate(-2509.84 -207.29)"/><circle class="cls-32" cx="1238.29" cy="342.04" r="1.43"/><polyline class="cls-32" points="1239.61 342.57 1248.04 333.18 1237.41 328.92 1236.97 341.5"/><path class="cls-33" d="M3737.1,546.92a1.89,1.89,0,0,1-.44.19,2.82,2.82,0,0,1-3.09-1.47,2.43,2.43,0,1,1,3.53,1.28Z" transform="translate(-2509.84 -207.29)"/><ellipse class="cls-33" cx="3731.07" cy="547.13" rx="0.55" ry="0.69" transform="translate(-2263.1 1781.95) rotate(-30.83)"/><polyline class="cls-33" points="1221.59 340.44 1226.57 339.88 1223.72 335.14 1220.88 339.25"/><circle class="cls-34" cx="1236.67" cy="330.94" r="3.53"/><path class="cls-35" d="M3764.66,553.23a.82.82,0,0,1-.26,0,.89.89,0,0,1-.59-1.11s.61-2-.32-3.23a9.4,9.4,0,0,1-1.82-4.89,13.6,13.6,0,0,1,1.21-5.79c.95-1.79-.07-4.24-.09-4.26a38.35,38.35,0,0,1-2.29-7.49c-.44-3.21,2-8.58,2.13-8.81a.87.87,0,0,1,1.17-.43.88.88,0,0,1,.44,1.17c-.65,1.42-2.28,5.59-2,7.82a35.65,35.65,0,0,0,2.17,7c.05.12,1.38,3.22,0,5.79a12.17,12.17,0,0,0-1,4.9h0a7.8,7.8,0,0,0,1.45,3.86c1.5,1.92.66,4.73.62,4.85A.89.89,0,0,1,3764.66,553.23Z" transform="translate(-2509.84 -207.29)"/><path class="cls-35" d="M3770.75,548.9a.9.9,0,0,1-.77-.44c-.45-.79-4.34-7.74-1.52-10.82a3.38,3.38,0,0,0,.13-4.41c-3.63-4.15-.38-11.93-.24-12.26a.89.89,0,0,1,1.64.7c0,.07-3,7.08,0,10.42a5.13,5.13,0,0,1-.18,6.74c-1.65,1.81.77,7,1.75,8.74a.89.89,0,0,1-.77,1.33Z" transform="translate(-2509.84 -207.29)"/><path class="cls-35" d="M3776.08,543.4a.89.89,0,0,1-.56-.2A5.57,5.57,0,0,1,3774,536c.2-.45.72-2.13,0-2.87-1.55-1.62-.5-6.14-.28-7a.89.89,0,0,1,1.73.43c-.54,2.12-.73,4.78-.16,5.37,1.68,1.76.34,4.78.28,4.91a3.81,3.81,0,0,0,1.09,5,.88.88,0,0,1,.14,1.25A.91.91,0,0,1,3776.08,543.4Z" transform="translate(-2509.84 -207.29)"/><path class="cls-36" d="M3780.54,558.87a.89.89,0,0,1,0-1.78c3.76-.05,7.1-1.81,8.3-4.4s.36-5.42-2.26-8.59a.89.89,0,0,1,1.37-1.13c3.89,4.72,3.51,8.3,2.5,10.47-1.51,3.24-5.39,5.37-9.89,5.43Z" transform="translate(-2509.84 -207.29)"/><path class="cls-37" d="M3786.5,523.89a1.37,1.37,0,0,1-.74-.23,1.33,1.33,0,0,1-.37-1.84c1.87-2.8,2.2-6.24.83-8.55s-4.36-3.38-8.41-3a1.34,1.34,0,1,1-.24-2.66c6.91-.62,9.82,2.44,10.94,4.32,1.91,3.22,1.56,7.69-.9,11.38A1.33,1.33,0,0,1,3786.5,523.89Z" transform="translate(-2509.84 -207.29)"/><rect class="cls-38" x="1249.72" y="353.54" width="12.6" height="2.37" rx="0.69"/><rect class="cls-38" x="1247.96" y="351.96" width="12.6" height="2.37" rx="0.69"/><rect class="cls-38" x="1246.9" y="350.75" width="12.02" height="2.37" rx="0.69"/><path class="cls-35" d="M3761.3,558.32c-1.87,0-4-.06-6.49-.2-12.83-.73-19.1-12.21-19.36-12.7a1.33,1.33,0,0,1,2.35-1.26h0c0,.11,5.85,10.65,17.16,11.3,10.43.6,15.2-.4,15.25-.41A24.24,24.24,0,0,0,3787.42,540c4.2-10.66-6.27-21.47-6.38-21.58a1.33,1.33,0,0,1,1.9-1.87c.48.49,11.79,12.17,7,24.43a26.93,26.93,0,0,1-19.19,16.72A50.42,50.42,0,0,1,3761.3,558.32Z" transform="translate(-2509.84 -207.29)"/><rect class="cls-38" x="1245.43" y="349.37" width="11.84" height="2.37" rx="0.69"/><rect class="cls-38" x="1243.27" y="348.05" width="12.6" height="2.37" rx="0.87"/><rect class="cls-39" x="3762.76" y="558.23" width="10.41" height="2.37" rx="0.69" transform="translate(-1198.65 -2559.01) rotate(41.39)"/><rect class="cls-38" x="3752.35" y="558.14" width="10.41" height="2.37" rx="0.69" transform="translate(-1201.31 -2552.15) rotate(41.39)"/><path class="cls-40" d="M3734.28,537.28a1.32,1.32,0,0,1-1.32-1.2c0-.19-.43-4.6.59-7.53a1.33,1.33,0,0,1,2.52.87,18.65,18.65,0,0,0-.46,6.41,1.33,1.33,0,0,1-1.2,1.45Z" transform="translate(-2509.84 -207.29)"/><path class="cls-40" d="M3738.32,522a1.33,1.33,0,0,1-1-2.17c.32-.4,8.06-9.81,16.69-9.63a1.33,1.33,0,0,1,0,2.66h-.23c-7.25,0-14.3,8.56-14.37,8.64A1.3,1.3,0,0,1,3738.32,522Z" transform="translate(-2509.84 -207.29)"/><path class="cls-41" d="M2955.21,1095.7a4.14,4.14,0,0,1-2.13-.6c-15.73-9.64-12.24-20.93-12.09-21.41l7.75,2.54,0-.12c-.06.24-1.39,5.94,8.57,12a4.08,4.08,0,0,1-2.13,7.56Z" transform="translate(-2509.84 -207.29)"/><path class="cls-42" d="M2921.35,1099.86a4,4,0,0,1-3-1.29,4.08,4.08,0,0,1,.17-5.74c.24-.24,4.91-4.93,4.91-13.84a4.08,4.08,0,0,1,8.15,0c0,12.64-7.17,19.49-7.47,19.77A4.06,4.06,0,0,1,2921.35,1099.86Z" transform="translate(-2509.84 -207.29)"/><rect class="cls-43" x="395.13" y="850.48" width="45.41" height="23.78" rx="11.89"/><rect class="cls-43" x="399.61" y="844.79" width="45.41" height="23.78" rx="8.75"/><path class="cls-44" d="M2969.79,1048.49h-7.13c-8.68,0-15.78,7.5-15.78,16.66h0a17.2,17.2,0,0,0,2.24,8.49,14.93,14.93,0,0,0,6.92,1.72h14.13c7.29,0,13.46-5.3,15.24-12.42C2984.38,1054.81,2977.76,1048.49,2969.79,1048.49Z" transform="translate(-2509.84 -207.29)"/><path class="cls-45" d="M2970.17,1075.36H2956a14.93,14.93,0,0,1-6.92-1.72,15.65,15.65,0,0,0,13.54,8.17h7.13c8.68,0,15.78-7.49,15.78-16.66h0a16.08,16.08,0,0,0-.16-2.21C2983.63,1070.06,2977.46,1075.36,2970.17,1075.36Z" transform="translate(-2509.84 -207.29)"/><rect class="cls-46" x="456.23" y="849.94" width="12.18" height="12.18" rx="6.09"/><path class="cls-26" d="M2900,1059.64h54.64c-3.19-11.36-14.22-19.74-27.39-19.74s-24.2,8.39-27.39,19.74Z" transform="translate(-2509.84 -207.29)"/><path class="cls-47" d="M2904.7,1066.55a4.62,4.62,0,0,1-.82-.07,4.76,4.76,0,0,1-3.87-5.5c3-17.35,20.83-21.43,29.82-21.13a4.75,4.75,0,0,1-.28,9.5h0c-.72,0-17.83-.28-20.17,13.25A4.75,4.75,0,0,1,2904.7,1066.55Z" transform="translate(-2509.84 -207.29)"/><rect class="cls-48" x="384.78" y="851.89" width="32.11" height="12.09" rx="6.05"/><path class="cls-49" d="M2961.59,1075.47l-.31,0a12.28,12.28,0,0,1-9.34-5c-4-5.62-2.19-13.52-2-14.4a3.4,3.4,0,1,1,6.6,1.62c-.38,1.57-.95,6.24.93,8.85a5.69,5.69,0,0,0,4.41,2.14,3.4,3.4,0,0,1-.31,6.78Z" transform="translate(-2509.84 -207.29)"/><path class="cls-49" d="M2957.5,1075.46c-5.78,0-9.45-1.55-11.17-4.7-3.3-6,3.18-14.54,3.93-15.49a2.72,2.72,0,0,1,4.26,3.37c-2.05,2.62-4.56,7.45-3.43,9.51.87,1.59,4.57,2.22,9.9,1.69a2.72,2.72,0,1,1,.53,5.41C2960.08,1075.39,2958.75,1075.46,2957.5,1075.46Z" transform="translate(-2509.84 -207.29)"/><circle class="cls-50" cx="438.52" cy="860.69" r="5.78"/><ellipse class="cls-51" cx="460.39" cy="853.43" rx="2.69" ry="2.55"/><path class="cls-52" d="M2927.54,1096.5a4.08,4.08,0,0,1-2.53-7.28c2.84-2.23,6.18-5,7.6-6.25.07-1.68-.06-5.3-.27-8.26a4.08,4.08,0,0,1,8.13-.58c.76,10.73,0,11.95-.61,12.93-.34.55-1.05,1.68-9.81,8.57A4,4,0,0,1,2927.54,1096.5Z" transform="translate(-2509.84 -207.29)"/><path class="cls-52" d="M2907.38,1084.42c-3.91,0-13-1.24-14.12-1.39a4.08,4.08,0,1,1,1.11-8.08,124.92,124.92,0,0,0,13.24,1.31c.91,0,3.08-1.51,4.28-2.7a4.07,4.07,0,0,1,5.76,5.76c-.81.82-5.12,4.9-9.7,5.09Z" transform="translate(-2509.84 -207.29)"/><polygon class="cls-53" points="645.45 335.38 646.43 334.09 653.19 336.04 642.52 384.73 635.76 382.78 645.45 335.38"/><circle class="cls-54" cx="573.76" cy="584.16" r="14.87"/><circle class="cls-55" cx="573.76" cy="584.16" r="10.18"/><circle class="cls-54" cx="576.27" cy="661.05" r="14.87"/><circle class="cls-55" cx="576.27" cy="661.05" r="10.18"/><circle class="cls-54" cx="521.29" cy="638.81" r="14.87"/><circle class="cls-55" cx="521.29" cy="638.81" r="10.18"/><circle class="cls-54" cx="522.9" cy="600.34" r="14.87"/><circle class="cls-55" cx="522.9" cy="600.34" r="10.18"/><path class="cls-56" d="M3088,789.29s31.88,5.17,45.73,21.43,9.67,23.83,9.67,23.83,4.91,17.21-44.63,34.61c0,0-12.68,3-21.56-3,0,0-58.67-20-61.43-27.44,0,0-16.23-8.05-.8-21.35S3088,789.29,3088,789.29Z" transform="translate(-2509.84 -207.29)"/><path class="cls-57" d="M3068.23,864.33a145.07,145.07,0,0,0,16.36,5c21.24,4.82,46.12-15.48,47.17-16.34a2.27,2.27,0,1,0-2.89-3.5c-.24.19-24.22,19.74-43.28,15.42-19.26-4.38-59-23.13-61.91-24.53-1.07-.77-8.79-6.55-8.57-13.51.14-4.52,3.65-8.85,10.44-12.88a2.27,2.27,0,0,0-2.32-3.91c-8.22,4.88-12.48,10.49-12.66,16.67-.29,9.94,10.25,17.18,10.7,17.48l.29.17C3022.9,845.09,3047.64,856.88,3068.23,864.33Z" transform="translate(-2509.84 -207.29)"/><path class="cls-58" d="M3039.7,808.24a3,3,0,0,0,2,.09l32.15-9.84a3,3,0,1,0-1.77-5.79L3040,802.54a3,3,0,0,0-.25,5.7Z" transform="translate(-2509.84 -207.29)"/><path class="cls-58" d="M3122.65,808.48a3,3,0,0,0,2.78-5.26c-.63-.51-15.74-12.4-27.86-12.09a3,3,0,1,0,.15,6c8.26-.21,20.09,7.71,24,10.78A3,3,0,0,0,3122.65,808.48Z" transform="translate(-2509.84 -207.29)"/><path class="cls-51" d="M3109.34,862.29a7.57,7.57,0,0,1-6.23-3.26c-20.09-29-5.72-60.08-5.1-61.39a7.57,7.57,0,0,1,13.68,6.47c-.48,1-11.15,24.61,3.87,46.31a7.56,7.56,0,0,1-6.22,11.87Z" transform="translate(-2509.84 -207.29)"/><path class="cls-51" d="M3052.51,858.06a7.56,7.56,0,0,1-6.78-4.21c-12.62-25.41-.48-49.17,0-50.17a7.57,7.57,0,0,1,13.43,7c-.39.77-9,18.13.08,36.47a7.57,7.57,0,0,1-6.77,10.93Z" transform="translate(-2509.84 -207.29)"/><rect class="cls-59" x="3036.69" y="852.24" width="29.63" height="6.39" rx="3.19" transform="translate(3119.67 2491.35) rotate(-160.1)"/><rect class="cls-59" x="3101.02" y="857.04" width="24.76" height="6.93" rx="3.46" transform="translate(3788.03 111.98) rotate(154.9)"/><rect class="cls-60" x="3130.7" y="832.67" width="17.14" height="6.44" rx="3.22" transform="translate(3791.17 1374.98) rotate(178.37)"/><rect class="cls-61" x="2991.94" y="805.84" width="18.41" height="45.5" rx="9.2" transform="translate(3517.26 1354.1) rotate(178.18)"/><rect class="cls-51" x="3007.47" y="814.1" width="5.99" height="27.35" rx="2.99" transform="translate(3536.26 1350.54) rotate(178.15)"/><rect class="cls-62" x="2990.94" y="808.94" width="7.18" height="37.66" rx="3.59" transform="translate(3500.31 1367.81) rotate(178.47)"/><path class="cls-58" d="M3071.54,851.74c8.28-2.51,12.45-12.92,9.31-23.26s-12.38-16.68-20.65-14.17" transform="translate(-2509.84 -207.29)"/><ellipse class="cls-58" cx="3065.74" cy="834" rx="3.79" ry="16.27" transform="translate(-2612.66 860.19) rotate(-19.43)"/><path class="cls-62" d="M3059.11,836.33c-3.05-7.73-3.59-13.94-1.6-18.45a9.19,9.19,0,0,1,4.69-5,2.24,2.24,0,0,1,2.88,1.27,2.29,2.29,0,0,1-1.21,3c-.26.12-6.28,3-.54,17.54,5,12.72,8.24,13.93,8.74,14.05a2.27,2.27,0,0,1,2.55,3.73,4.18,4.18,0,0,1-3.72.66,4.64,4.64,0,0,1-.53-.16C3066.67,851.61,3063,846.17,3059.11,836.33ZM3071.72,849Zm0,0h0Z" transform="translate(-2509.84 -207.29)"/><path class="cls-63" d="M3078.48,835.91s-1.94,6.52-4.95,6.91" transform="translate(-2509.84 -207.29)"/><line class="cls-63" x1="557.09" y1="625.93" x2="567.12" y2="622.56"/><path class="cls-63" d="M3074.63,824.55s-4.53-3-8.71-1.14" transform="translate(-2509.84 -207.29)"/><ellipse class="cls-64" cx="3121.77" cy="822.28" rx="7.95" ry="7.88" transform="translate(-1224.01 3270.35) rotate(-70.1)"/><ellipse class="cls-65" cx="3121.77" cy="822.28" rx="6.95" ry="6.88" transform="translate(-1224.01 3270.35) rotate(-70.1)"/><ellipse class="cls-66" cx="3121.77" cy="822.28" rx="5.49" ry="5.44" transform="translate(-1224.01 3270.35) rotate(-70.1)"/><ellipse class="cls-67" cx="3122.76" cy="819.98" rx="2.52" ry="2.49" transform="translate(-1221.2 3269.76) rotate(-70.1)"/><circle class="cls-54" cx="471.54" cy="694" r="10.78"/><circle class="cls-55" cx="471.54" cy="694" r="7.38"/><circle class="cls-54" cx="473.36" cy="749.75" r="10.78"/><circle class="cls-55" cx="473.36" cy="749.75" r="7.38"/><circle class="cls-54" cx="433.5" cy="733.62" r="10.78"/><circle class="cls-55" cx="433.5" cy="733.62" r="7.38"/><circle class="cls-54" cx="434.67" cy="705.73" r="10.78"/><circle class="cls-55" cx="434.67" cy="705.73" r="7.38"/><path class="cls-56" d="M2984.6,899.72s23.1,3.75,33.14,15.54,7,17.28,7,17.28,3.56,12.48-32.36,25.1c0,0-9.2,2.13-15.63-2.2,0,0-42.54-14.48-44.54-19.9,0,0-11.77-5.84-.58-15.48S2984.6,899.72,2984.6,899.72Z" transform="translate(-2509.84 -207.29)"/><path class="cls-57" d="M2970.24,954.13a106.14,106.14,0,0,0,11.86,3.67c15.4,3.49,33.44-11.23,34.2-11.86a1.64,1.64,0,0,0,.22-2.31,1.66,1.66,0,0,0-2.32-.23c-.17.15-17.56,14.32-31.38,11.19s-42.75-16.77-44.88-17.79c-.78-.55-6.37-4.75-6.22-9.79.1-3.28,2.65-6.42,7.57-9.34a1.65,1.65,0,0,0-1.68-2.83c-6,3.53-9.05,7.6-9.18,12.08-.21,7.21,7.43,12.46,7.76,12.67l.21.13C2937.37,940.18,2955.31,948.73,2970.24,954.13Z" transform="translate(-2509.84 -207.29)"/><path class="cls-58" d="M2949.55,913.47a2.21,2.21,0,0,0,1.46.06l23.32-7.14a2.19,2.19,0,1,0-1.29-4.19l-23.31,7.13a2.2,2.2,0,0,0-1.46,2.74A2.23,2.23,0,0,0,2949.55,913.47Z" transform="translate(-2509.84 -207.29)"/><path class="cls-58" d="M3009.69,913.64a2.2,2.2,0,0,0,2-3.82c-.46-.36-11.41-9-20.2-8.76a2.19,2.19,0,1,0,.11,4.38c6-.14,14.56,5.6,17.36,7.82A2.33,2.33,0,0,0,3009.69,913.64Z" transform="translate(-2509.84 -207.29)"/><path class="cls-51" d="M3000,954.73a7.49,7.49,0,0,1-6.22-3.26c-15.25-22-4.34-45.59-3.87-46.58a7.56,7.56,0,0,1,13.68,6.46c-.36.78-7.52,16.85,2.63,31.51a7.56,7.56,0,0,1-6.22,11.87Z" transform="translate(-2509.84 -207.29)"/><path class="cls-51" d="M2958.84,951.67a7.57,7.57,0,0,1-6.78-4.21c-9.62-19.36-.35-37.51.05-38.27a7.57,7.57,0,0,1,13.43,7c-.29.58-6,12.29.07,24.56a7.57,7.57,0,0,1-6.77,10.94Z" transform="translate(-2509.84 -207.29)"/><rect class="cls-59" x="2947.37" y="945.37" width="21.49" height="4.63" rx="2.31" transform="translate(2907.06 2638.54) rotate(-160.1)"/><rect class="cls-59" x="2994.01" y="948.85" width="17.95" height="5.02" rx="2.51" transform="translate(3616.16 331.94) rotate(154.9)"/><rect class="cls-60" x="3015.53" y="931.18" width="12.43" height="4.67" rx="2.33" transform="translate(3558.94 1573.52) rotate(178.37)"/><rect class="cls-61" x="2914.92" y="911.72" width="13.35" height="32.99" rx="6.67" transform="translate(3361.37 1555.84) rotate(178.18)"/><rect class="cls-51" x="2926.18" y="917.72" width="4.34" height="19.83" rx="2.17" transform="translate(3375.32 1552.84) rotate(178.15)"/><rect class="cls-62" x="2914.2" y="913.97" width="5.21" height="27.3" rx="2.6" transform="translate(3347.56 1569.56) rotate(178.47)"/><path class="cls-58" d="M2972.64,945c6-1.82,9-9.37,6.75-16.86s-9-12.09-15-10.27" transform="translate(-2509.84 -207.29)"/><ellipse class="cls-58" cx="2968.43" cy="932.14" rx="2.75" ry="11.8" transform="translate(-2650.86 833.41) rotate(-19.43)"/><path class="cls-62" d="M2963.62,933.83c-2.21-5.6-2.6-10.11-1.16-13.38a6.71,6.71,0,0,1,3.4-3.6,1.62,1.62,0,0,1,2.09.92,1.67,1.67,0,0,1-.87,2.14c-.19.08-4.56,2.16-.39,12.72,3.63,9.22,6,10.1,6.33,10.19a1.64,1.64,0,0,1,1.85,2.7,3.06,3.06,0,0,1-2.7.48,2.4,2.4,0,0,1-.38-.12C2969.11,944.91,2966.43,941,2963.62,933.83Zm9.15,9.16Zm0,0h0Z" transform="translate(-2509.84 -207.29)"/><path class="cls-63" d="M2977.66,933.53s-1.4,4.72-3.58,5" transform="translate(-2509.84 -207.29)"/><line class="cls-63" x1="459.46" y1="724.29" x2="466.73" y2="721.84"/><path class="cls-63" d="M2974.88,925.29s-3.29-2.19-6.32-.83" transform="translate(-2509.84 -207.29)"/><ellipse class="cls-64" cx="3009.06" cy="923.64" rx="5.77" ry="5.71" transform="translate(-1393.66 3231.22) rotate(-70.1)"/><ellipse class="cls-65" cx="3009.06" cy="923.64" rx="5.04" ry="4.99" transform="translate(-1393.66 3231.22) rotate(-70.1)"/><ellipse class="cls-66" cx="3009.06" cy="923.64" rx="3.98" ry="3.94" transform="translate(-1393.66 3231.22) rotate(-70.1)"/><ellipse class="cls-67" cx="3009.77" cy="921.98" rx="1.83" ry="1.81" transform="translate(-1391.62 3230.8) rotate(-70.1)"/><rect class="cls-19" x="2967.83" y="502.14" width="200.18" height="68.53" rx="34.26" transform="translate(-2111.67 -1274.71) rotate(21.08)"/><path d="M3051.24,567.06c-16.88-51.16,23.47-64.61,23.47-64.61l40.36,15s-39,10.81-24.79,64.35Z" transform="translate(-2509.84 -207.29)"/><rect class="cls-68" x="3153.54" y="549.24" width="11.18" height="7.32" rx="3.66" transform="translate(-256.94 -2730.83) rotate(63.66)"/><ellipse class="cls-53" cx="3150.93" cy="565.72" rx="24.92" ry="14.51" transform="translate(-586.17 3315.16) rotate(-77.64)"/><ellipse class="cls-18" cx="3157.69" cy="567.67" rx="24.92" ry="14.51" transform="translate(-582.77 3323.3) rotate(-77.64)"/><path class="cls-14" d="M3164.93,577l-.14,0-4.59-1a6.35,6.35,0,0,1-4.83-7.54h0a6.34,6.34,0,0,1,7.54-4.82l4.73,1,2.17.48-2.73,12.46" transform="translate(-2509.84 -207.29)"/><ellipse class="cls-69" cx="3168.76" cy="571.47" rx="6.38" ry="2.97" transform="translate(-577.78 3337.09) rotate(-77.64)"/><ellipse class="cls-69" cx="3159.9" cy="574.71" rx="5.27" ry="5.41" transform="translate(-587.9 3330.99) rotate(-77.64)"/><ellipse class="cls-14" cx="3159.02" cy="576.12" rx="5.27" ry="5.41" transform="translate(-589.97 3331.23) rotate(-77.64)"/><rect class="cls-5" x="2708.07" y="447.87" width="64.46" height="32.04" rx="16.02" transform="translate(-2358.81 -753.39) rotate(11.7)"/><rect class="cls-11" x="2977.92" y="613.62" width="135.83" height="44.44" rx="21.1" transform="translate(-2344.56 -747.79) rotate(10.42)"/><path class="cls-20" d="M3778.41,1108c-17.54,0-31.8-14-31.8-31.3a31,31,0,0,1,14.93-26.49,17.11,17.11,0,0,1,7-7.06,37.59,37.59,0,0,1-12.64-28.1v-13a37.74,37.74,0,0,1,37.7-37.7h62.18a37.29,37.29,0,0,1-.53-22.48c.23-.79.46-1.5.7-2.17a37.85,37.85,0,0,1,35.46-25.13h62l.29.5a17,17,0,0,1,2.32,8.52v2.53a16.77,16.77,0,0,1-1.69,7.32,17.09,17.09,0,0,1-15.34,9.71h-24.09a15.3,15.3,0,0,0-3.64,3,15.78,15.78,0,0,0-1.94,2.74,15,15,0,0,0-1.82,7.15v2.53a14.77,14.77,0,0,0,1.43,6.33,15.22,15.22,0,0,0,10.13,8.28h32.16a17.39,17.39,0,0,1,3.26.32,17.09,17.09,0,0,1,11.45,8.19,16.78,16.78,0,0,1,2.25,7.18c0,.44.07.89.07,1.34v2.53a16.12,16.12,0,0,1-.26,2.84,17,17,0,0,1-13,13.75l-2.93.78-34,.5-33,.59-37.45-1-1.2-.12,3.55,31h26.53a17,17,0,0,1,11.46,4.48,17.14,17.14,0,0,1,4.14,5.76,16.75,16.75,0,0,1,1.43,6.79v2.53a17.11,17.11,0,0,1-17,17h-21.83q0,.46,0,.87a18.07,18.07,0,0,0,18.2,17.88H3982l-1.63,1.69a32.11,32.11,0,0,1-23.09,9.86Zm66-97.78a15,15,0,0,0-9,13.75v2.53a15.19,15.19,0,0,0,10.39,14.28Z" transform="translate(-2509.84 -207.29)"/><path class="cls-20" d="M3845.33,1008.93l2.38.25,37.4,1,33-.59,33.83-.5,2.84-.76A16.11,16.11,0,0,0,3967,995.42a16.78,16.78,0,0,0,.24-2.67v-2.53c0-.43,0-.85-.06-1.27a15.93,15.93,0,0,0-2.12-6.75,16,16,0,0,0-13.85-8H3919a16.13,16.13,0,0,1-10.93-8.86,15.93,15.93,0,0,1-1.52-6.75v-2.53a15.87,15.87,0,0,1,1.95-7.63h0a16.48,16.48,0,0,1,6.18-6.29H3939a15.94,15.94,0,0,0,10.32-3.8A16.14,16.14,0,0,0,3955,926.1v-2.53a16,16,0,0,0-2.18-8H3891.4A36.84,36.84,0,0,0,3856.88,940c-.25.69-.47,1.4-.68,2.11a36.36,36.36,0,0,0,1,23.2h-63.6a36.81,36.81,0,0,0-36.7,36.7v13a36.66,36.66,0,0,0,13.44,28.33h0a16.19,16.19,0,0,0-8,7.53,15.88,15.88,0,0,0-1.75,7.23V1058a15.42,15.42,0,0,1,1.75-7.11,30.25,30.25,0,0,0-14.69,25.79c0,16.66,13.86,30.3,30.79,30.3h178.88a30.92,30.92,0,0,0,22.37-9.55H3872.9a19.1,19.1,0,0,1-19.2-18.88,16.62,16.62,0,0,1,.12-1.87h22.74a16,16,0,0,0,13.59-7.59,15.83,15.83,0,0,0,2.44-8.44v-2.53a15.87,15.87,0,0,0-1.35-6.39,16.09,16.09,0,0,0-3.9-5.42,15.92,15.92,0,0,0-10.78-4.22h-29.74l.72.15-.72-.15m2.33.12-2.33-.12a16.08,16.08,0,0,1-12.45-15.61V1024a16.09,16.09,0,0,1,11-15.19m77.22-34.17c-.39,0-.78,0-1.16-.05.38,0,.77.05,1.16.05Zm-2.71-.24c.44.08.89.14,1.34.18C3920.72,974.51,3920.27,974.45,3919.83,974.37Zm-61.83,69a15.67,15.67,0,0,0,3.23-.35A15.67,15.67,0,0,1,3858,1043.37Z" transform="translate(-2509.84 -207.29)"/><path class="cls-21" d="M3978.43,1108.52v0h-12.83a20.78,20.78,0,0,1,0-41.56h29.3c-3.33-4.37-7.93-7.4-12.48-8.21h-1v-.58l0,0v.56h-34.63a20,20,0,0,1-14.58-6.28,20.49,20.49,0,0,1-3.84-5.7,20,20,0,0,1,3.06-21.27,20.3,20.3,0,0,1,8.23-5.81,20.05,20.05,0,0,1,7.13-1.33H4018a18.44,18.44,0,0,0,8.7-7.14c.17-.26.33-.52.49-.8a18.08,18.08,0,0,0,2.41-9,18.26,18.26,0,0,0-18.19-18.2h-32.21a20.17,20.17,0,0,1-8.22-38.61,19.88,19.88,0,0,1,8.22-1.78h28.53a16.48,16.48,0,0,0,6-5.07,16.14,16.14,0,0,0-.84-20.13l-2.18-2.53,3.21.91a38.16,38.16,0,0,1,24.33,21.34h7.59a37.45,37.45,0,0,1,19.88,5.72,37.82,37.82,0,0,1,17.73,29.42,37.94,37.94,0,0,1,31.22,34.7l.07,1.07h-3.36a14.39,14.39,0,0,0-14.34,14.34v2.54a14.31,14.31,0,0,0,4.44,10.34l.05,0,.71.47a14.31,14.31,0,0,0,9.19,3.36h63.18a14.43,14.43,0,0,0,13.46-9.44l.77-2.09,1.05,2a37.66,37.66,0,0,1-33.26,55.4h-113a19.82,19.82,0,0,1,.18,2.63,20.78,20.78,0,0,1-18.71,20.65v.07l-.91.09Z" transform="translate(-2509.84 -207.29)"/><path class="cls-21" d="M3927.53,1038.52a19.06,19.06,0,0,0,1.68,7.81,19.46,19.46,0,0,0,3.66,5.42,19.15,19.15,0,0,0,13.85,6h34.63c.06.08.12.17.19.25l-.17-.25h1.12c5.31.91,10.34,4.55,13.7,9.28.23.3.45.62.67.93h-31.27a19.78,19.78,0,0,0,0,39.56h13.75v0h44.89v-.09a19.68,19.68,0,0,0,18.28-23.35h114.15a36.82,36.82,0,0,0,36.7-36.71h0a36.46,36.46,0,0,0-4.32-17.22,15.4,15.4,0,0,1-14.4,10.1h-63.18a15.31,15.31,0,0,1-9.83-3.59l-.14.12a15.3,15.3,0,0,1-5.42-11.66v-2.54a15.39,15.39,0,0,1,15.34-15.34h2.29a36.86,36.86,0,0,0-31.17-33.91h0a37.85,37.85,0,0,0-.53-4.68h0a36.89,36.89,0,0,0-16.78-24.76,36.47,36.47,0,0,0-19.35-5.56h-8.25A37,37,0,0,0,4013.68,917a17.26,17.26,0,0,1-5.71,26.86h-28.76a19.2,19.2,0,0,0,0,38.39h32.21a19,19,0,0,1,9.38,2.48,19.24,19.24,0,0,1,9.81,16.72,19,19,0,0,1-2.54,9.49c-.17.29-.34.57-.52.85a19.41,19.41,0,0,1-9.35,7.59h-71.48a19.06,19.06,0,0,0-6.77,1.26,19.38,19.38,0,0,0-7.83,5.53A19.1,19.1,0,0,0,3927.53,1038.52Zm153.7-67.86c-.2.46-.42.91-.65,1.34C4080.81,971.57,4081,971.12,4081.23,970.66Z" transform="translate(-2509.84 -207.29)"/><path class="cls-22" d="M3952.26,1108.33l0-.07h-96.91A16.24,16.24,0,0,1,3853,1076l0-.25h23.58a15.12,15.12,0,0,0,15-15v-2.53a14.77,14.77,0,0,0-1.26-6,15.23,15.23,0,0,0-3.66-5.08,14.92,14.92,0,0,0-10.11-4H3846.7l-.11,0a17.17,17.17,0,0,1-13.22-16.58V1024a17,17,0,0,1,11.63-16.13l.19-.05h0a12.42,12.42,0,0,1,1.87-.1c.85,0,1.82,0,2.65.06l1.49,0h100a15.06,15.06,0,0,0,14.8-12.52,15.4,15.4,0,0,0,.23-2.51v-2.53c0-.4,0-.79-.06-1.19a14.91,14.91,0,0,0-2-6.32,15.12,15.12,0,0,0-10.12-7.24,14.92,14.92,0,0,0-2.87-.28h-32.39l-.11,0a17.17,17.17,0,0,1-11.6-9.4,16.69,16.69,0,0,1-1.62-7.18v-2.53a17,17,0,0,1,2.07-8.11,17.45,17.45,0,0,1,2.18-3.1,17.16,17.16,0,0,1,4.39-3.58l.23-.13H3939a15,15,0,0,0,9.67-3.56,15.38,15.38,0,0,0,3.87-5,14.86,14.86,0,0,0,1.49-6.45v-2.53a15,15,0,0,0-2.05-7.52l-.87-1.5h52.57A37.68,37.68,0,0,1,4014,916l.29.09.2.22a18.17,18.17,0,0,1,.94,22.62,18.59,18.59,0,0,1-7,5.8l-.2.09h-29a18,18,0,0,0-7.4,1.6A18.27,18.27,0,0,0,3961,963a18.31,18.31,0,0,0,18.2,18.19h32.21a20.16,20.16,0,0,1,17.52,30.19c-.18.3-.36.6-.55.89a20.41,20.41,0,0,1-9.84,8l-.17.07h-71.66a17.9,17.9,0,0,0-6.42,1.2,18.35,18.35,0,0,0-7.42,5.24,18.14,18.14,0,0,0-4.35,11.75,18,18,0,0,0,1.6,7.4,18.3,18.3,0,0,0,3.46,5.14,18,18,0,0,0,13.13,5.66h32.59l-.09-.13,1.47.13h.92l.08.09c5.66.66,11.35,4.31,15.27,9.84a21.83,21.83,0,0,1,4.28,12.37,20.32,20.32,0,0,1-10.6,17.75h8.81c6.45,0,11.71,4,11.71,8.83a6.76,6.76,0,0,1-.32,2l-.22.71Z" transform="translate(-2509.84 -207.29)"/><path class="cls-22" d="M3834.37,1024v2.53a16.08,16.08,0,0,0,12.45,15.61h29.74a15.92,15.92,0,0,1,10.78,4.22,16.09,16.09,0,0,1,3.9,5.42,15.87,15.87,0,0,1,1.35,6.39v2.53a15.83,15.83,0,0,1-2.44,8.44,16,16,0,0,1-13.59,7.59h-22.7a.71.71,0,0,0,0,.14,15.3,15.3,0,0,0-13.77,15.17h0a15.29,15.29,0,0,0,15.25,15.25H3953a.17.17,0,0,0,0,.07h56.89a5.9,5.9,0,0,0,.27-1.73h0c0-4.31-4.82-7.83-10.71-7.83h-12.87l.18-.44a19.33,19.33,0,0,0,12.72-13,18.82,18.82,0,0,0,.76-5.28,20.81,20.81,0,0,0-4.1-11.8h0c-3.61-5.09-9.18-8.93-14.92-9.45l.27.42c-.12-.15-.23-.32-.35-.47h-34.42a19.15,19.15,0,0,1-13.85-6,19.46,19.46,0,0,1-3.66-5.42,19,19,0,0,1,2.91-20.21,19.32,19.32,0,0,1,7.83-5.53h0a19.06,19.06,0,0,1,6.77-1.26h71.48a19.41,19.41,0,0,0,9.35-7.59c.18-.28.35-.56.52-.85a19,19,0,0,0,2.54-9.49,19.24,19.24,0,0,0-9.81-16.72,19,19,0,0,0-9.38-2.48h-32.21a19.19,19.19,0,0,1-16.36-9.22,19,19,0,0,1-2.84-10,19.29,19.29,0,0,1,19.2-19.2H4008a17.39,17.39,0,0,0,6.6-5.48,17.16,17.16,0,0,0-.89-21.38,36.71,36.71,0,0,0-10-1.4h-50.83a16,16,0,0,1,2.18,8v2.53a16.11,16.11,0,0,1-16,16h-24.35a16.48,16.48,0,0,0-6.18,6.29h0a15.87,15.87,0,0,0-1.95,7.63v2.53a15.93,15.93,0,0,0,1.52,6.75,16.13,16.13,0,0,0,10.93,8.86h32.27a16,16,0,0,1,13.85,8,15.93,15.93,0,0,1,2.12,6.75c0,.42.06.84.06,1.27v2.53a16.78,16.78,0,0,1-.24,2.67,16.11,16.11,0,0,1-12.21,12.94,15.66,15.66,0,0,1-3.58.42h-100a57.42,57.42,0,0,0-5.87,0h-.06A16.09,16.09,0,0,0,3834.37,1024Zm157.57,39.29a20.1,20.1,0,0,1,2.94,2.51A20.1,20.1,0,0,0,3991.94,1063.26Z" transform="translate(-2509.84 -207.29)"/><path class="cls-20" d="M4111.41,1041.47a16.39,16.39,0,0,1-16.34-16.35v-2.54a16.41,16.41,0,0,1,16.34-16.34h3.23l.06.93c.06.93.09,1.71.09,2.46v.26h41.82a38,38,0,0,1,4.57.29l-.12,2h-40.59a8.26,8.26,0,0,0-6.06,2.67,37.55,37.55,0,0,1-1.94,7.71,8.34,8.34,0,0,0,8,6.18h51.19a8.28,8.28,0,0,0,8.28-8.28v-.25l-.07-2.32,1.73,1.54a37.84,37.84,0,0,1,8.28,10.48l.22.4-.16.42a16.42,16.42,0,0,1-15.33,10.75Z" transform="translate(-2509.84 -207.29)"/><path class="cls-20" d="M4101.51,1010.89a15.29,15.29,0,0,1,9.9-3.65h2.29c.05.79.09,1.58.09,2.39h0c0,.42,0,.84,0,1.26h42.85a36.29,36.29,0,0,1,4.45.28h-40.59a9.24,9.24,0,0,0-7,3.24,36.52,36.52,0,0,1-2,8.08,9.3,9.3,0,0,0,9,7.24h51.19a9.31,9.31,0,0,0,9.28-9.28c0-.09,0-.19,0-.28a37.17,37.17,0,0,1,8.06,10.2,15.39,15.39,0,0,1-14.39,10.1h-63.19a15.41,15.41,0,0,1-15.34-15.35v-2.54A15.33,15.33,0,0,1,4101.51,1010.89Z" transform="translate(-2509.84 -207.29)"/><path class="cls-22" d="M4120.47,1030.73a10.28,10.28,0,0,1,0-20.56h40.71a37.45,37.45,0,0,1,20.41,9.24l.32.29,0,.43c0,.16,0,.24,0,.31a10.29,10.29,0,0,1-10.28,10.28Z" transform="translate(-2509.84 -207.29)"/><path class="cls-22" d="M4180.94,1020.45a9.31,9.31,0,0,1-9.28,9.28h-51.19a9.28,9.28,0,0,1,0-18.56h40.59a36.65,36.65,0,0,1,19.87,9C4180.93,1020.26,4180.94,1020.36,4180.94,1020.45Z" transform="translate(-2509.84 -207.29)"/><rect class="cls-11" x="2880.03" y="606.67" width="139.43" height="44.44" rx="21.1" transform="translate(-2530.19 -102.82) rotate(-2.02)"/><rect x="3085.93" y="610.01" width="44.01" height="67.11" rx="22.01" transform="translate(-2574.98 365.33) rotate(-10.42)"/><rect class="cls-5" x="2673.97" y="498.28" width="69.74" height="32.04" rx="16.02" transform="translate(-2349.24 -745.96) rotate(11.7)"/><rect class="cls-5" x="3090.21" y="609.22" width="44.01" height="67.11" rx="22.01" transform="translate(-2574.76 366.09) rotate(-10.42)"/><path class="cls-32" d="M2774.92,456.48l-118.63-63.84c-11.47-6.17-29.42-6.48-34.9-.6l-39.12,42c-5.46,5.86,4.79,14.32,20,16.48l157.2,22.4" transform="translate(-2509.84 -207.29)"/><ellipse class="cls-70" cx="257.35" cy="257.42" rx="16.22" ry="9.35"/><path class="cls-70" d="M2758.18,453.45,2658,399.55c-9.68-5.22-24.84-5.48-29.47-.51l-33,35.46c-4.61,4.95,4,12.09,16.87,13.92l132.73,18.91" transform="translate(-2509.84 -207.29)"/><polygon class="cls-70" points="229.01 229.92 218.73 230.38 200.26 254.85 202.64 258.5 249.61 265.63 265.09 249.2 229.01 229.92"/><path class="cls-71" d="M3191.32,675.36s-131.43-13.51-33-98.54" transform="translate(-2509.84 -207.29)"/><path class="cls-32" d="M2732.2,504.79,2613.57,441c-11.47-6.18-29.43-6.49-34.9-.61l-39.13,42c-5.46,5.86,4.8,14.32,20,16.48l157.2,22.4" transform="translate(-2509.84 -207.29)"/><ellipse class="cls-70" cx="214.62" cy="305.72" rx="16.22" ry="9.35"/><path class="cls-70" d="M2715.45,501.76l-100.16-53.91c-9.69-5.21-24.85-5.47-29.47-.51l-33,35.47c-4.61,4.95,4,12.09,16.87,13.92l132.74,18.91" transform="translate(-2509.84 -207.29)"/><polygon class="cls-70" points="186.29 278.23 176 278.69 157.54 303.16 159.91 306.81 206.89 313.94 222.36 297.51 186.29 278.23"/><rect class="cls-14" x="3149.26" y="614.12" width="25.74" height="14.44" rx="7.22" transform="translate(-1945.91 -1492.37) rotate(25.15)"/><rect x="3350.55" y="608.91" width="18.69" height="116.25" rx="8.44" transform="translate(-2536.82 972.5) rotate(-19.84)"/><rect class="cls-18" x="3353.76" y="688.84" width="30.96" height="8.18" rx="3.69" transform="translate(-2545.05 977.2) rotate(-19.84)"/><rect class="cls-18" x="3350.53" y="678.53" width="30.08" height="8.47" rx="3.82" transform="translate(-2541.82 975.35) rotate(-19.84)"/><rect class="cls-72" x="3366.99" y="719.92" width="25.63" height="4.6" rx="2.08" transform="translate(-2554.36 982.53) rotate(-19.84)"/><rect class="cls-5" x="3352.99" y="699.88" width="45.53" height="22.23" rx="6.94" transform="translate(-2550.79 980.49) rotate(-19.84)"/><rect class="cls-11" x="3361.13" y="642.2" width="9.7" height="22.29" rx="4.85" transform="translate(-1061.98 -2396.03) rotate(45)"/><rect class="cls-11" x="3336.41" y="639.46" width="17.41" height="40.35" rx="8.7" transform="translate(-2491.25 1200.09) rotate(-23.82)"/><path class="cls-73" d="M3392.38,717l511.52,434.77s-159.25,293-631.38,185.14l94.94-610.81Z" transform="translate(-2509.84 -207.29)"/><path class="cls-26" d="M2742.54,1194.23s7.61-31.72,5.9-49.65l-1.09.66-.69,4.15.79,1.58" transform="translate(-2509.84 -207.29)"/><path class="cls-74" d="M3479.55,955.42h204.27a0,0,0,0,1,0,0v412.13a0,0,0,0,1,0,0h-160a91.39,91.39,0,0,1-91.39-91.39V1002.5A47.09,47.09,0,0,1,3479.55,955.42Z" transform="translate(2209.79 -2603.95) rotate(90)"/><path class="cls-74" d="M933.63,829.51h273.65a46.09,46.09,0,0,1,46.09,46.09v203.27a0,0,0,0,1,0,0H843.24a0,0,0,0,1,0,0v-159A90.39,90.39,0,0,1,933.63,829.51Z"/><rect class="cls-75" x="3550.78" y="999.09" width="21.69" height="376.07" transform="translate(2238.91 -2581.79) rotate(90)"/><rect class="cls-75" x="864.75" y="969.99" width="374.07" height="19.69"/><rect class="cls-75" x="3555.08" y="1019.71" width="21.69" height="389.34" transform="translate(2270.47 -2558.82) rotate(90)"/><rect class="cls-75" x="862.41" y="997.26" width="387.34" height="19.69"/><rect class="cls-75" x="3548.42" y="1051.89" width="21.69" height="377.5" transform="translate(2290.07 -2525.92) rotate(90)"/><rect class="cls-75" x="861.68" y="1023.51" width="375.5" height="19.69"/><rect class="cls-75" x="3553.44" y="1069.32" width="21.69" height="397" transform="translate(2322.27 -2503.74) rotate(90)"/><rect class="cls-75" x="856.94" y="1050.7" width="395" height="19.69"/><rect class="cls-75" x="3544.49" y="903.21" width="21.69" height="376.19" transform="translate(2136.8 -2671.32) rotate(90)"/><rect class="cls-75" x="858.4" y="874.17" width="374.19" height="19.69"/><rect class="cls-75" x="3547.3" y="884.87" width="21.69" height="361.82" transform="translate(2114.09 -2699.65) rotate(90)"/><rect class="cls-75" x="868.4" y="848.65" width="359.82" height="19.69"/><rect class="cls-75" x="3515.58" y="911.12" width="15.85" height="261.2" transform="translate(2055.4 -2689.07) rotate(90)"/><rect class="cls-75" x="884.07" y="827.51" width="259.2" height="13.85"/><path class="cls-76" d="M3478.79,1190.51h-2v-20c-1.38-1.11-5.65-5-5.56-10.17.1-6.37,3.79-13.92,13.82-14.19l.06,2c-11.12.3-11.85,10.24-11.88,12.23-.09,5,5.09,8.79,5.14,8.83l.42.3Z" transform="translate(-2509.84 -207.29)"/><path class="cls-76" d="M3468.4,1190.7l-.17-20.28c-1.44-1.09-5.78-4.91-5.66-10.83.24-12.3,8.4-15,15.2-15.2h.4c13.13,0,14.14,13.41,14.19,14.4a13.69,13.69,0,0,1-5.28,11.88l.09,20h-2l-.09-21,.39-.3a11.92,11.92,0,0,0,4.91-10.37v-.1c0-.52-.59-12.53-12.2-12.53h-.36c-8.74.19-13.07,4.52-13.24,13.24-.11,5.85,5.15,9.41,5.2,9.45l.45.29.18,21.31Z" transform="translate(-2509.84 -207.29)"/><polygon class="cls-76" points="958.57 982.4 977.37 982.4 977.22 987.22 958.57 987.42 958.57 982.4"/><rect class="cls-76" x="3568.93" y="1087.25" width="2" height="90.59" transform="translate(-93.98 4488.29) rotate(-89.65)"/><rect class="cls-76" x="3525" y="1127.21" width="90.5" height="2" transform="translate(-2515.3 -189.84) rotate(-0.28)"/><rect class="cls-76" x="3499.13" y="1266.17" width="2" height="11.45" transform="translate(-292.03 4560.93) rotate(-89.83)"/><polygon class="cls-76" points="1070.94 1065.61 994.47 1065.61 994.66 996.07 996.66 996.08 996.48 1063.61 1070.94 1063.61 1070.94 1065.61"/><polygon class="cls-76" points="1072.49 1069.62 983.72 1069.44 983.9 995.52 985.9 995.53 985.73 1067.44 1070.48 1067.62 1070.31 949.87 1015.72 950.41 1015.7 948.41 1072.3 947.85 1072.49 1069.62"/><rect class="cls-76" x="3383.19" y="1157.24" width="2" height="115.02" transform="translate(-2511.76 -201.91) rotate(-0.09)"/><rect class="cls-76" x="3459.38" y="1202.99" width="2" height="70.18" transform="matrix(1, -0.01, 0.01, 1, -2519.38, -180.28)"/><path class="cls-76" d="M3461.65,1277.09l-88.92-.19v-5.64h.16v-115h68.44v2h-66.44v113.93h86.76Zm-86.92-2.18,84.92.18v-.92h-84.92Z" transform="translate(-2509.84 -207.29)"/><path class="cls-76" d="M3441.15,1132.64l-.14-17.34,72.71-.07-.14,6.28-70.52,0,.09,11.16Zm1.89-13.17,68.58,0,.05-2.28-68.65.07Z" transform="translate(-2509.84 -207.29)"/><path class="cls-76" d="M3338.63,1301.24l-.84-170.16,105.37.56-.55,70.81h70.17l-1.1-87.22h14l1.4,89.2-16.86.29v-.27H3440.6l.54-70.82-101.34-.54.82,166.15,275.34-.09v2Zm175.08-184,1.07,85.41,10.3-.17-1.34-85.24Z" transform="translate(-2509.84 -207.29)"/><polygon class="cls-76" points="1105.12 1093.86 1104.39 924.54 1262.42 923.8 1262.06 1094.23 1105.12 1093.86"/><rect class="cls-76" x="3730.57" y="1156.9" width="2" height="116" transform="translate(-2518.33 -180.87) rotate(-0.41)"/><polygon class="cls-76" points="1132.01 948.13 1234.07 948.69 1234.9 1066.88 1132.01 1067.16 1132.01 948.13"/><path class="cls-76" d="M3629.44,1295a7.22,7.22,0,0,1-.1-14.44l120.48-1.72V1106.93c.23-12.53-2.65-34.26-11.36-39.32a7.22,7.22,0,1,1,7.26-12.49c18.82,10.94,18.62,47.79,18.54,52v186L3629.54,1295Z" transform="translate(-2509.84 -207.29)"/><path class="cls-76" d="M3733,1102.12l-2-.21a47.15,47.15,0,0,0-3.21-19.94c-5.53-14.07-17-23.53-34.06-28.12l.52-1.93C3736.58,1063.31,3733,1101.73,3733,1102.12Z" transform="translate(-2509.84 -207.29)"/><path class="cls-76" d="M3642.09,1102.73l0-1c0-.47,1.66-47.53,48.8-49.82h.34a63.66,63.66,0,0,1,27.34,6.7c15.91,8.26,24.38,23.37,24.49,43.7v1Z" transform="translate(-2509.84 -207.29)"/><rect class="cls-76" x="3614.43" y="1027.84" width="2" height="13.26" transform="translate(-3.2 4420.53) rotate(-88.82)"/><path class="cls-76" d="M3771.81,1129H3614.49l.56-38.75c.07-.7,1.72-15.08,12.41-30.63,8.56-12.45,24.56-27.62,53.52-34l-35.19.48a100.74,100.74,0,0,0-31.46,15c-14.44,10.32-31.85,29.27-32.83,60.94l-2-.06c1-32.52,18.89-52,33.72-62.55a102.18,102.18,0,0,1,32.22-15.31l.21,0,48.69-.66.62-.06v0l4.73-.06a95,95,0,0,1,33.23,10.58c15.55,8.41,34.87,25.22,38.59,57.57v.1Zm-155.3-2h153.28l-.26-35.31c-3.64-31.46-22.43-47.8-37.55-56a93,93,0,0,0-32.35-10.34l-5.12.07c-36.71,4-55.79,21.37-65.35,35.23a72.43,72.43,0,0,0-12.12,29.7Z" transform="translate(-2509.84 -207.29)"/><polygon class="cls-76" points="983.77 894.66 994.77 894.41 1071.67 893.72 1071.67 900.1 983.49 900.38 983.77 894.66"/><path class="cls-76" d="M3493.61,1103.94l-.05-1c0-.61-.65-15.11,7.2-32.23,6.68-14.56,20.93-33.5,51.18-44.26l-24.11.15c-35.07,6.53-51.09,26.66-58.35,42.41a81.67,81.67,0,0,0-7.46,33.12l-2,.07a82.3,82.3,0,0,1,7.61-34c7.46-16.22,23.91-37,59.92-43.63h.18l30.48-.21,1.7-.49.13.48,22.73-.15c1,.08,21.37,2,27.4,9.49l1.29,1.61-2.06,0c-17.74.12-44.81.5-46.68,1a10,10,0,0,1-1.71.45c-31.9,7.35-51.57,30.76-55.39,65.94l-.09.87Zm64.9-77.51c-33.64,10.06-49,30-55.9,45.06a76.77,76.77,0,0,0-7.07,30.41l8.19-.19c4.14-35.6,24.3-59.31,56.83-66.79.61-.15,1.24-.29,1.39-.35,1.57-.74,30.29-1,45-1.17-7.06-5.56-24.08-7.12-24.27-7.13Z" transform="translate(-2509.84 -207.29)"/><polygon class="cls-76" points="952.18 900.28 863.42 900.28 863.42 895.27 865.42 895.27 865.42 898.28 950.18 898.28 950.18 895.91 874.99 895.91 874.99 893.91 952.18 893.91 952.18 900.28"/><path class="cls-76" d="M3338.25,1128.09l-.36-33.91c0-.63,1-13.77,9.33-29.06,7.66-14.1,23.27-32.63,54.12-40.82l.23,0c.32,0,21.35-.61,39.09-.94l1.89-.49.11.45c8.86-.15,16.65-.23,20.21-.11,11.1.37,27.19,11,27.87,11.47l-.74,1.81c-.5-.09-50.4-8.74-80.8,15.37-14.38,11.4-22.24,28.36-23.38,50.42l0,.91-12.5.43,0-1c0-.64-.36-15.76,8-33.27,7-14.77,21.74-33.72,52.23-43.85-15.08.32-30.23.75-31.72.8-57.59,15.35-61.82,67.45-61.85,68l.36,33.83Zm102.69-102.77c-34.47,9.2-50.49,29.34-57.86,44.78a80,80,0,0,0-7.82,31.42l8.62-.29c1.33-22.21,9.43-39.35,24.08-51,25.52-20.23,64.26-17.94,77.66-16.42-5.5-3.2-15.51-8.42-22.81-8.66C3459,1025.05,3450.49,1025.15,3440.94,1025.32Z" transform="translate(-2509.84 -207.29)"/><path class="cls-77" d="M3771.26,1132.08l-.36,168.43-154.94-.36-.74-167.34,135.61-.63v147.61l-121.48,1.74a6.22,6.22,0,0,0,.1,12.44h.08l133.74-1.9,0-160Zm-27.53,141.09-.81-116.21-11.76,0-88.32-.49v117l89.13-.25Z" transform="translate(-2509.84 -207.29)"/><path class="cls-77" d="M3694.41,1053c-2.17-.15-3.45-.12-3.45-.12-46.75,2.28-47.84,48.85-47.84,48.85l88.85.48,10.12.06C3741.85,1059.75,3705.86,1053.82,3694.41,1053Zm76.11,38.61.28,36.37h-7.55v-20.93c.09-4.1.28-40.43-18-51.07a6.21,6.21,0,1,0-6.24,10.75c9.08,5.28,12.09,27.38,11.86,40.2v21H3615.5l.55-37.74s6.25-57.91,78.42-65.82l5.24-.07S3763.42,1029.83,3770.52,1091.62Z" transform="translate(-2509.84 -207.29)"/><path class="cls-78" d="M3745.21,1056c18.32,10.64,18.13,47,18,51.07V1128h-12.42v-21c.23-12.82-2.78-34.92-11.86-40.2a6.21,6.21,0,1,1,6.24-10.75Z" transform="translate(-2509.84 -207.29)"/><path class="cls-78" d="M3763.25,1132.12l0,160-133.74,1.9h-.08a6.22,6.22,0,0,1-.1-12.44l121.48-1.74V1132.18Z" transform="translate(-2509.84 -207.29)"/><polygon class="cls-78" points="1253.42 920.7 1253.42 924.84 1240.99 924.89 1240.99 920.7 1253.42 920.7"/><path class="cls-79" d="M3442.05,1120.47l.1,12.16-102.93-.55,0-4-.36-33.89s3.65-53.23,62.7-68.91c0,0,21.36-.62,39.26-1-68.4,18.12-66.6,78.24-66.6,78.24v4H3461v-4.36s-2.19-63.81,66.72-76.57l30.69-.21c-66.73,19.81-63.87,77.51-63.87,77.51l-.19,3.73,86.13-.28V1102c1.13-36.58,23.49-56.75,41.7-67.15a97.29,97.29,0,0,1,23.46-9.78l48.81-.66c-72.17,7.91-78.42,65.82-78.42,65.82l-.55,37.74-90.5.46h-.08l-.19-12.22h-12l-70.69.07Z" transform="translate(-2509.84 -207.29)"/><polygon class="cls-79" points="984.74 1064.59 984.73 1068.44 1071.48 1068.62 1071.48 1064.61 1071.3 948.86 1015.71 949.41 1015.53 949.41 1015.14 924.99 1105.39 925.53 1106.12 1092.87 829.79 1092.95 828.96 924.8 829.39 924.8 932.31 925.35 932.12 949.95 931.5 949.95 874.26 949.95 864.05 949.95 864.05 1063.98 863.89 1063.98 863.89 1068.62 950.82 1068.8 950.82 1065.89 950.27 996.16 984.91 996.16 984.74 1064.59"/><path class="cls-77" d="M3609.36,1034.35l0,0s-45.38.32-47,1.09c-2.24,1-51.18,6.71-57.74,67.22l-10.07.24s-2.86-57.7,63.87-77.51h2.84l21.51-.14S3603.5,1027.1,3609.36,1034.35Z" transform="translate(-2509.84 -207.29)"/><polygon class="cls-80" points="995.48 1064.63 995.48 1064.61 1070.94 1064.61 1071.48 1064.61 1071.48 1068.62 984.73 1068.44 984.74 1064.59 995.48 1064.63"/><polygon class="cls-80" points="1070.67 894.73 1070.67 899.1 984.53 899.38 984.73 895.64 994.79 895.41 1070.67 894.73"/><polygon class="cls-77" points="1015.14 924.99 1015.53 949.41 1016.26 996.16 1003.96 996.38 1003.96 996.16 1002.86 908.94 1014.89 908.94 1015.08 921.16 1015.14 924.99"/><path class="cls-79" d="M3485,1147.12a13.08,13.08,0,0,0-7.23-1.73c-13,.28-14.12,9.57-14.21,14.23-.12,6.47,5.66,10.29,5.66,10.29l.18,20.78v3l16.67-.19.09-2.82-.09-20.51a12.83,12.83,0,0,0,5.29-11.3S3491.11,1150.76,3485,1147.12Zm20.49,56.33h-63.89l.34-46.21.2-24.61-.1-12.16,70.55,0,.1-4.28,1.09,87.22Z" transform="translate(-2509.84 -207.29)"/><polygon class="cls-80" points="1002.86 908.94 1002.77 913.23 932.22 913.18 932.17 909.01 1002.86 908.94"/><polygon class="cls-77" points="995.66 996.16 995.48 1064.61 995.48 1064.63 984.74 1064.59 984.91 996.16 995.66 996.16"/><path class="cls-81" d="M3491.37,1158.88a12.83,12.83,0,0,1-5.29,11.3l.09,20.51h-8.39V1170s-5.65-4-5.55-9.66c.09-5.45,3-12.9,12.78-13.22C3491.11,1150.76,3491.37,1158.88,3491.37,1158.88Z" transform="translate(-2509.84 -207.29)"/><polygon class="cls-80" points="976.34 983.4 976.24 986.22 959.57 986.42 959.57 983.4 967.95 983.4 976.34 983.4"/><path class="cls-77" d="M3462.84,1024.18c10.93.36,27.34,11.29,27.34,11.29s-101-18.22-105.36,66.73l-10.57.36s-1.8-60.12,66.6-78.24C3450.43,1024.14,3459,1024.06,3462.84,1024.18Z" transform="translate(-2509.84 -207.29)"/><path class="cls-77" d="M3477.78,1145.39a13.08,13.08,0,0,1,7.23,1.73c-9.78.32-12.69,7.77-12.78,13.22-.1,5.62,5.55,9.66,5.55,9.66v20.69h-8.37l-.18-20.78s-5.78-3.82-5.66-10.29C3463.66,1155,3464.8,1145.67,3477.78,1145.39Z" transform="translate(-2509.84 -207.29)"/><polygon class="cls-80" points="951.18 894.91 951.18 899.28 864.41 899.28 864.41 895.27 874.99 894.91 951.18 894.91"/><polygon class="cls-80" points="950.82 1065.89 950.82 1068.8 863.89 1068.62 863.89 1063.98 864.05 1063.98 864.05 1065.89 874.44 1065.89 950.82 1065.89"/><polygon class="cls-77" points="874.44 1064.97 874.44 1065.89 864.05 1065.89 864.05 1063.98 864.05 949.95 874.26 949.95 874.44 1064.97"/><path class="cls-51" d="M3595.72,1098.28a4.49,4.49,0,0,1-4.33-4.65c.74-17,9.41-34.77,21.57-44.32a4.43,4.43,0,0,1,6.25.75,4.45,4.45,0,0,1-.74,6.25c-10.08,7.92-17.55,23.43-18.17,37.71a4.45,4.45,0,0,1-4.45,4.26Z" transform="translate(-2509.84 -207.29)"/><path class="cls-51" d="M3595.85,1097.28h-.16a3.47,3.47,0,0,1-3.3-3.61c.73-16.68,9.24-34.19,21.19-43.58a3.46,3.46,0,0,1,4.27,5.44c-10.29,8.08-17.92,23.89-18.55,38.44A3.46,3.46,0,0,1,3595.85,1097.28Z" transform="translate(-2509.84 -207.29)"/><path class="cls-51" d="M3479.5,1098.28a4.49,4.49,0,0,1-4.33-4.65c.74-17,9.41-34.77,21.57-44.32a4.36,4.36,0,0,1,2.75-1,4.46,4.46,0,0,1,2.76,8c-10.08,7.92-17.55,23.43-18.17,37.71a4.45,4.45,0,0,1-4.45,4.26Z" transform="translate(-2509.84 -207.29)"/><path class="cls-51" d="M3479.63,1097.28h-.15a3.47,3.47,0,0,1-3.31-3.61c.73-16.68,9.24-34.19,21.19-43.58a3.46,3.46,0,0,1,4.27,5.44c-10.29,8.08-17.92,23.89-18.55,38.44A3.46,3.46,0,0,1,3479.63,1097.28Z" transform="translate(-2509.84 -207.29)"/><path class="cls-51" d="M3357,1098.28a4.49,4.49,0,0,1-4.33-4.65c.74-17,9.41-34.77,21.57-44.32a4.43,4.43,0,0,1,6.25.75,4.45,4.45,0,0,1-.74,6.25c-10.08,7.92-17.55,23.43-18.17,37.71a4.45,4.45,0,0,1-4.45,4.26Z" transform="translate(-2509.84 -207.29)"/><path class="cls-51" d="M3357.14,1097.28H3357a3.47,3.47,0,0,1-3.3-3.61c.73-16.68,9.24-34.19,21.19-43.58a3.46,3.46,0,0,1,4.27,5.44c-10.29,8.08-17.92,23.89-18.55,38.44A3.46,3.46,0,0,1,3357.14,1097.28Z" transform="translate(-2509.84 -207.29)"/><rect class="cls-82" x="3644.89" y="1006.27" width="6.56" height="248.35" transform="translate(2268.78 -2725.01) rotate(90)"/><rect class="cls-82" x="1015.16" y="920.88" width="246.35" height="4.56"/><rect class="cls-82" x="3387.41" y="1077.17" width="5.6" height="104.96" transform="translate(2010.03 -2467.85) rotate(90)"/><rect class="cls-82" x="828.9" y="920.56" width="102.97" height="3.6"/></svg>